<svg width="942" height="942" viewBox="0 0 942 942" fill="none" xmlns="http://www.w3.org/2000/svg">
<path fill-rule="evenodd" clip-rule="evenodd" d="M471 942C731.126 942 942 731.126 942 471C942 210.874 731.126 0 471 0C210.874 0 0 210.874 0 471C0 731.126 210.874 942 471 942Z" fill="url(#paint0_linear)"/>
<mask id="mask0" mask-type="alpha" maskUnits="userSpaceOnUse" x="0" y="0" width="942" height="942">
<path fill-rule="evenodd" clip-rule="evenodd" d="M471 942C731.126 942 942 731.126 942 471C942 210.874 731.126 0 471 0C210.874 0 0 210.874 0 471C0 731.126 210.874 942 471 942Z" fill="white"/>
</mask>
<g mask="url(#mask0)">
<path fill-rule="evenodd" clip-rule="evenodd" d="M346.107 595.893C387.738 637.524 221.215 887.309 221.215 887.309L54.6909 720.785C54.6909 720.785 304.476 554.262 346.107 595.893Z" fill="url(#paint1_linear)" fill-opacity="0.25"/>
<path fill-rule="evenodd" clip-rule="evenodd" d="M346.107 595.893C366.923 616.708 179.584 845.678 179.584 845.678L96.3219 762.416C96.3219 762.416 325.292 575.077 346.107 595.893Z" fill="url(#paint2_linear)"/>
<g filter="url(#filter0_i)">
<path fill-rule="evenodd" clip-rule="evenodd" d="M346.107 429.369L512.631 595.893L426.117 599.145L342.855 515.883L346.107 429.369Z" fill="url(#paint3_linear)"/>
</g>
<path fill-rule="evenodd" clip-rule="evenodd" d="M804.047 137.953L616.708 699.97L242.03 325.292L804.047 137.953Z" fill="url(#paint4_linear)"/>
</g>
<defs>
<filter id="filter0_i" x="342.855" y="429.369" width="169.776" height="201.776" filterUnits="userSpaceOnUse" color-interpolation-filters="sRGB">
<feFlood flood-opacity="0" result="BackgroundImageFix"/>
<feBlend mode="normal" in="SourceGraphic" in2="BackgroundImageFix" result="shape"/>
<feColorMatrix in="SourceAlpha" type="matrix" values="0 0 0 0 0 0 0 0 0 0 0 0 0 0 0 0 0 0 127 0" result="hardAlpha"/>
<feOffset dy="32"/>
<feGaussianBlur stdDeviation="16"/>
<feComposite in2="hardAlpha" operator="arithmetic" k2="-1" k3="1"/>
<feColorMatrix type="matrix" values="0 0 0 0 0.129412 0 0 0 0 0.168627 0 0 0 0 0.443137 0 0 0 0.25 0"/>
<feBlend mode="normal" in2="shape" result="effect1_innerShadow"/>
</filter>
<linearGradient id="paint0_linear" x1="942" y1="942" x2="942" y2="0" gradientUnits="userSpaceOnUse">
<stop stop-color="#3023AE"/>
<stop offset="1" stop-color="#C86DD7"/>
</linearGradient>
<linearGradient id="paint1_linear" x1="262.845" y1="512.631" x2="54.6909" y2="720.785" gradientUnits="userSpaceOnUse">
<stop stop-color="white"/>
<stop offset="1" stop-color="#FB32A7"/>
</linearGradient>
<linearGradient id="paint2_linear" x1="304.476" y1="554.262" x2="96.3219" y2="762.416" gradientUnits="userSpaceOnUse">
<stop stop-color="white"/>
<stop offset="1" stop-color="#FB32A7"/>
</linearGradient>
<linearGradient id="paint3_linear" x1="471.106" y1="571.647" x2="368.691" y2="469.232" gradientUnits="userSpaceOnUse">
<stop stop-color="#171F5E"/>
<stop offset="0.490539" stop-color="#38428C"/>
<stop offset="0.498329" stop-color="#B3B8DB"/>
<stop offset="1" stop-color="#B3B7D1"/>
</linearGradient>
<linearGradient id="paint4_linear" x1="845.272" y1="323.422" x2="614.838" y2="92.9881" gradientUnits="userSpaceOnUse">
<stop stop-color="#222B71"/>
<stop offset="0.490539" stop-color="#4B559D"/>
<stop offset="0.498329" stop-color="#B3B8DB"/>
<stop offset="1" stop-color="#E3E4EE"/>
</linearGradient>
</defs>
</svg>
