<svg width="100" height="95" viewBox="0 0 100 95" fill="none" xmlns="http://www.w3.org/2000/svg">
<path fill-rule="evenodd" clip-rule="evenodd" d="M99.6566 47.2694C99.6566 72.127 80.4508 92.7109 55.7942 94.5268C52.6437 94.7588 49.9016 92.3929 49.6695 89.2423C49.4375 86.0918 51.8034 83.3497 54.954 83.1177C73.6452 81.7411 88.2166 66.1242 88.2166 47.2694C88.2166 28.4303 73.6686 12.8213 54.9959 11.4243C51.8456 11.1886 49.4829 8.4438 49.7185 5.29353C49.9542 2.14327 52.6991 -0.219473 55.8493 0.0162051C80.4816 1.859 99.6566 22.4324 99.6566 47.2694ZM33.8698 15.1512C37.7579 15.1512 40.9099 11.9993 40.9099 8.11121C40.9099 4.22313 37.7579 1.07121 33.8698 1.07121C29.9818 1.07121 26.8298 4.22313 26.8298 8.11121C26.8298 11.9993 29.9818 15.1512 33.8698 15.1512ZM22.3632 22.7779C22.3632 26.666 19.2113 29.8179 15.3232 29.8179C11.4351 29.8179 8.28319 26.666 8.28319 22.7779C8.28319 18.8899 11.4351 15.7379 15.3232 15.7379C19.2113 15.7379 22.3632 18.8899 22.3632 22.7779ZM7.04 52.8707C10.9281 52.8707 14.08 49.7188 14.08 45.8307C14.08 41.9426 10.9281 38.7907 7.04 38.7907C3.15192 38.7907 0 41.9426 0 45.8307C0 49.7188 3.15192 52.8707 7.04 52.8707ZM22.3632 70.6579C22.3632 74.546 19.2113 77.6979 15.3232 77.6979C11.4351 77.6979 8.28319 74.546 8.28319 70.6579C8.28319 66.7698 11.4351 63.6179 15.3232 63.6179C19.2113 63.6179 22.3632 66.7698 22.3632 70.6579ZM40.9099 85.3246C40.9099 89.2126 37.7579 92.3646 33.8698 92.3646C29.9818 92.3646 26.8298 89.2126 26.8298 85.3246C26.8298 81.4365 29.9818 78.2845 33.8698 78.2845C37.7579 78.2845 40.9099 81.4365 40.9099 85.3246Z" fill="white"/>
</svg>
