<?xml version="1.0" encoding="UTF-8"?>
<svg width="32px" height="32px" viewBox="0 0 32 32" version="1.1" xmlns="http://www.w3.org/2000/svg" xmlns:xlink="http://www.w3.org/1999/xlink">
    <!-- Generator: Sketch 64 (93537) - https://sketch.com -->
    <title>Group</title>
    <desc>Created with Sketch.</desc>
    <g id="Page-1" stroke="none" stroke-width="1" fill="none" fill-rule="evenodd">
        <g id="Group">
            <circle id="Oval" fill="#F67F70" cx="16" cy="16" r="16"></circle>
            <g id="White-1" transform="translate(16.000000, 16.500000) scale(-1, 1) rotate(-180.000000) translate(-16.000000, -16.500000) translate(7.000000, 8.000000)" fill="#FFFFFF">
                <path d="M18,8.49966699 C18,12.9693942 14.5310436,16.6706532 10.0775623,16.9971762 C9.50851825,17.0388929 9.01323946,16.6134726 8.9713175,16.0469528 C8.92941361,15.480451 9.35674306,14.9873849 9.92580522,14.9456682 C13.3018144,14.6981373 15.9337043,11.8900109 15.9337043,8.49966699 C15.9337043,5.11214618 13.3060409,2.30544032 9.9333732,2.05424113 C9.36436523,2.01185914 8.93761377,1.51830758 8.9801679,0.951847123 C9.02274009,0.385388465 9.51852461,-0.0394641601 10.0875145,0.00291389771 C14.5366067,0.334272937 18,4.03364396 18,8.49966699 Z M6.11757174,2.72438733 C6.81984134,2.72438733 7.38915636,2.15763378 7.38915636,1.45850347 C7.38915636,0.759374963 6.81984134,0.192617814 6.11757174,0.192617814 C5.41532021,0.192617814 4.84600518,0.759374963 4.84600518,1.45850347 C4.84600518,2.15763378 5.41532021,2.72438733 6.11757174,2.72438733 Z M4.03924677,4.09576946 C4.03924677,4.79490156 3.46994981,5.36165512 2.76768021,5.36165512 C2.06541062,5.36165512 1.49611185,4.79490156 1.49611185,4.09576946 C1.49611185,3.39665533 2.06541062,2.8298838 2.76768021,2.8298838 C3.46994981,2.8298838 4.03924677,3.39665533 4.03924677,4.09576946 Z M1.27156656,9.50685525 C1.97383615,9.50685525 2.54313312,8.94010169 2.54313312,8.24096959 C2.54313312,7.54183748 1.97383615,6.97508393 1.27156656,6.97508393 C0.569300578,6.97508393 0,7.54183748 0,8.24096959 C0,8.94010169 0.569300578,9.50685525 1.27156656,9.50685525 Z M4.03924677,12.7052304 C4.03924677,13.4043625 3.46994981,13.9711161 2.76768021,13.9711161 C2.06541062,13.9711161 1.49611185,13.4043625 1.49611185,12.7052304 C1.49611185,12.0060983 2.06541062,11.4393448 2.76768021,11.4393448 C3.46994981,11.4393448 4.03924677,12.0060983 4.03924677,12.7052304 Z M7.38915636,15.3424982 C7.38915636,16.0416123 6.81984134,16.6083839 6.11757174,16.6083839 C5.41532021,16.6083839 4.84600518,16.0416123 4.84600518,15.3424982 C4.84600518,14.6433661 5.41532021,14.0765946 6.11757174,14.0765946 C6.81984134,14.0765946 7.38915636,14.6433661 7.38915636,15.3424982 Z" id="Shape"></path>
            </g>
        </g>
    </g>
</svg>