<svg xmlns="http://www.w3.org/2000/svg" width="64" height="64" viewBox="0 0 64 64"><defs><style>.cls-1{fill:#324175;}.cls-2{fill:#66a1ff;}.cls-3{fill:#fff;}</style></defs><title>lunie_icon_create</title><g id="Vrstva_2" data-name="Vrstva 2"><g id="Vrstva_1-2" data-name="Vrstva 1"><circle class="cls-1" cx="32" cy="32" r="32"/><path class="cls-2" d="M46,39.36V34.64A8.67,8.67,0,0,0,37.36,26H32.64A8.67,8.67,0,0,0,24,34.64v4.72A8.67,8.67,0,0,0,32.64,48h4.72A8.67,8.67,0,0,0,46,39.36ZM41,37a1,1,0,0,1-1,1H36v4a1,1,0,0,1-2,0V38H30a1,1,0,0,1,0-2h4V32a1,1,0,0,1,2,0v4h4A1,1,0,0,1,41,37Z"/><path class="cls-3" d="M45,24a1,1,0,0,1-1-1V20a2,2,0,0,0-2-2H22a2,2,0,0,0-2,2V47h0a1,1,0,0,1-2,0h0V20a4,4,0,0,1,4-4H42a4,4,0,0,1,4,4v3A1,1,0,0,1,45,24Z"/></g></g></svg>