<svg xmlns="http://www.w3.org/2000/svg" width="64" height="64" viewBox="0 0 64 64"><defs><style>.cls-1{fill:#324175;}.cls-2{fill:#fff;}.cls-3{fill:#66a1ff;}</style></defs><title>lunie_icon_sent</title><g id="Vrstva_2" data-name="Vrstva 2"><g id="Vrstva_1-2" data-name="Vrstva 1"><circle class="cls-1" cx="32" cy="32" r="32"/><path class="cls-2" d="M20,22c10.85,3.86,27.18,9.68,27.91,10h0L48,32l-1,.38h0L20,42V22m0-2a2,2,0,0,0-2,2V32h0V42a2,2,0,0,0,2,2,1.87,1.87,0,0,0,.59-.1s28.07-10,28.08-10A2,2,0,0,0,50,32h0a2,2,0,0,0-1.33-1.88s-28.08-10-28.08-10A1.87,1.87,0,0,0,20,20Z"/><path class="cls-3" d="M23,33H37a1,1,0,0,0,0-2H23a1,1,0,0,0,0,2Z"/></g></g></svg>