<svg xmlns="http://www.w3.org/2000/svg" width="64" height="64" viewBox="0 0 64 64"><defs><style>.cls-1{fill:#324175;}.cls-2{fill:#fff;}.cls-3{fill:#62d08e;}.cls-4{fill:#66a1ff;}</style></defs><title>lunie_icon_proposal</title><g id="Vrstva_2" data-name="Vrstva 2"><g id="Vrstva_1-2" data-name="Vrstva 1"><circle class="cls-1" cx="32" cy="32" r="32"/><path class="cls-2" d="M45,33a1,1,0,0,0-1,1v9a2,2,0,0,1-2,2H22a2,2,0,0,1-2-2V21a2,2,0,0,1,2-2h7a1,1,0,0,0,0-2H22a4,4,0,0,0-4,4V43a4,4,0,0,0,4,4H42a4,4,0,0,0,4-4V34A1,1,0,0,0,45,33Z"/><path class="cls-3" d="M40.5,17h-3A5.52,5.52,0,0,0,32,22.5v3A5.52,5.52,0,0,0,37.5,31h3A5.52,5.52,0,0,0,46,25.5v-3A5.52,5.52,0,0,0,40.5,17Zm2.24,5.75L39,26.49a.88.88,0,0,1-1.25,0L35.26,24a.88.88,0,0,1,0-1.25.89.89,0,0,1,1.25,0l1.87,1.87,3.11-3.11a.88.88,0,0,1,1.25,0A.86.86,0,0,1,42.74,22.75Z"/><path class="cls-4" d="M29,21H23a1,1,0,0,0,0,2h6a1,1,0,0,0,0-2Z"/><path class="cls-4" d="M29,29H23a1,1,0,0,0,0,2h6a1,1,0,0,0,0-2Z"/><path class="cls-4" d="M29,25H23a1,1,0,0,0,0,2h6a1,1,0,0,0,0-2Z"/><path class="cls-4" d="M41,33H23a1,1,0,0,0,0,2H41a1,1,0,0,0,0-2Z"/><path class="cls-4" d="M41,37H23a1,1,0,0,0,0,2H41a1,1,0,0,0,0-2Z"/><path class="cls-4" d="M41,41H23a1,1,0,0,0,0,2H41a1,1,0,0,0,0-2Z"/></g></g></svg>