<svg xmlns="http://www.w3.org/2000/svg" width="64" height="64" viewBox="0 0 64 64"><defs><style>.cls-1{fill:#324175;}.cls-2{fill:#f67f70;}.cls-3{fill:#66a1ff;}.cls-4{fill:#fff;}</style></defs><title>lunie_icon_unstaked</title><g id="Vrstva_2" data-name="Vrstva 2"><g id="Vrstva_1-2" data-name="Vrstva 1"><circle class="cls-1" cx="32" cy="32" r="32"/><path class="cls-2" d="M33.5,16h-3A5.52,5.52,0,0,0,25,21.5v3A5.52,5.52,0,0,0,30.5,30h3A5.52,5.52,0,0,0,39,24.5v-3A5.52,5.52,0,0,0,33.5,16ZM32,25a2,2,0,1,1,2-2A2,2,0,0,1,32,25Z"/><path class="cls-3" d="M25,48H39a4,4,0,0,0,4-4V29a1,1,0,0,0-2,0V44a2,2,0,0,1-2,2H25a2,2,0,0,1-2-2V29a1,1,0,0,0-2,0V44A4,4,0,0,0,25,48Z"/><path class="cls-4" d="M27.76,37.24a1,1,0,0,0,1.41,0L31,35.41V43a1,1,0,0,0,2,0V35.41l1.83,1.83a1,1,0,0,0,1.41-1.41l-3.53-3.54a1,1,0,0,0-1.42,0l-3.53,3.54A1,1,0,0,0,27.76,37.24Z"/></g></g></svg>