<svg xmlns="http://www.w3.org/2000/svg" width="64" height="64" viewBox="0 0 64 64"><defs><style>.cls-1{fill:#324175;}.cls-2{fill:#fff;}.cls-3{fill:#66a1ff;}.cls-4{fill:#f67f70;}</style></defs><title>lunie_icon_claimreward</title><g id="Vrstva_2" data-name="Vrstva 2"><g id="Vrstva_1-2" data-name="Vrstva 1"><circle class="cls-1" cx="32" cy="32" r="32"/><path class="cls-2" d="M25,44H39a4,4,0,0,0,4-4V25a1,1,0,1,0-2,0V40a2,2,0,0,1-2,2H25a2,2,0,0,1-2-2V25a1,1,0,0,0-2,0V40A4,4,0,0,0,25,44Z"/><path class="cls-3" d="M47,20H17a1,1,0,0,0,0,2H47a1,1,0,0,0,0-2Z"/><path class="cls-4" d="M30.48,40h3A5.52,5.52,0,0,0,39,34.5v-3a5.52,5.52,0,0,0-5.5-5.5h-3A5.51,5.51,0,0,0,25,31.5v3A5.52,5.52,0,0,0,30.48,40ZM32,31a2,2,0,1,1-2,2A2,2,0,0,1,32,31Z"/></g></g></svg>