<svg xmlns="http://www.w3.org/2000/svg" width="64" height="64" viewBox="0 0 64 64"><defs><style>.cls-1{fill:#324175;}.cls-2{fill:#fff;}.cls-3{fill:#66a1ff;}</style></defs><title>lunie_icon_deposit</title><g id="Vrstva_2" data-name="Vrstva 2"><g id="Vrstva_1-2" data-name="Vrstva 1"><circle class="cls-1" cx="32" cy="32" r="32"/><path class="cls-2" d="M25,44H39a4,4,0,0,0,4-4V25a1,1,0,1,0-2,0V40a2,2,0,0,1-2,2H25a2,2,0,0,1-2-2V25a1,1,0,0,0-2,0V40A4,4,0,0,0,25,44Z"/><path class="cls-3" d="M27.73,29.24a1,1,0,0,0,1.42,0L31,27.41V39a1,1,0,0,0,2,0V27.41l1.83,1.83a1,1,0,0,0,1.41-1.41l-3.54-3.54a1,1,0,0,0-1.41,0l-3.54,3.54A1,1,0,0,0,27.73,29.24Z"/><path class="cls-2" d="M47,20H17a1,1,0,0,0,0,2H47a1,1,0,0,0,0-2Z"/></g></g></svg>