<svg xmlns="http://www.w3.org/2000/svg" width="64" height="64" viewBox="0 0 64 64"><defs><style>.cls-1{fill:#324175;}.cls-2{fill:#66a1ff;}.cls-3{fill:#fff;}.cls-4{fill:#f67f70;}</style></defs><title>lunie_icon_restaked</title><g id="Vrstva_2" data-name="Vrstva 2"><g id="Vrstva_1-2" data-name="Vrstva 1"><circle class="cls-1" cx="32" cy="32" r="32"/><path class="cls-2" d="M20,48h7a4,4,0,0,0,4-4V35a1,1,0,0,0-2,0v9a2,2,0,0,1-2,2H20a2,2,0,0,1-2-2V35a1,1,0,0,0-2,0v9A4,4,0,0,0,20,48Z"/><path class="cls-3" d="M37,48h7a4,4,0,0,0,4-4V35a1,1,0,0,0-2,0v9a2,2,0,0,1-2,2H37a2,2,0,0,1-2-2V35a1,1,0,0,0-2,0v9A4,4,0,0,0,37,48Z"/><path class="cls-4" d="M41.36,36H39.64a3.15,3.15,0,0,0-3.14,3.14v1.72A3.15,3.15,0,0,0,39.64,44h1.72a3.15,3.15,0,0,0,3.14-3.14V39.14A3.15,3.15,0,0,0,41.36,36Zm-.86,5.14A1.14,1.14,0,1,1,41.64,40,1.14,1.14,0,0,1,40.5,41.14Z"/><path class="cls-2" d="M44.74,26.76a1,1,0,0,0-1.41,0L41.5,28.59V25.5h0a9.5,9.5,0,0,0-19,0h0V31a1,1,0,0,0,2,0V25.5h0a7.5,7.5,0,0,1,15,0h0v3.09l-1.83-1.83a1,1,0,0,0-1.41,1.41l3.53,3.54a1,1,0,0,0,1.42,0l3.53-3.54A1,1,0,0,0,44.74,26.76Z"/></g></g></svg>