<svg xmlns="http://www.w3.org/2000/svg" width="64" height="64" viewBox="0 0 64 64"><defs><style>.cls-1{fill:#324175;}.cls-2{fill:#f67f70;}.cls-3{fill:#fff;}.cls-4{fill:#66a1ff;}</style></defs><title>lunie_icon_staked</title><g id="Vrstva_2" data-name="Vrstva 2"><g id="Vrstva_1-2" data-name="Vrstva 1"><circle class="cls-1" cx="32" cy="32" r="32"/><path class="cls-2" d="M30.5,44h3A5.52,5.52,0,0,0,39,38.5v-3A5.52,5.52,0,0,0,33.5,30h-3A5.52,5.52,0,0,0,25,35.5v3A5.52,5.52,0,0,0,30.5,44ZM32,35a2,2,0,1,1-2,2A2,2,0,0,1,32,35Z"/><path class="cls-3" d="M25,48H39a4,4,0,0,0,4-4V29a1,1,0,0,0-2,0V44a2,2,0,0,1-2,2H25a2,2,0,0,1-2-2V29a1,1,0,0,0-2,0V44A4,4,0,0,0,25,48Z"/><path class="cls-4" d="M36.24,22.76a1,1,0,0,0-1.41,0L33,24.59V17a1,1,0,0,0-2,0v7.59l-1.83-1.83a1,1,0,0,0-1.41,1.41l3.53,3.54a1,1,0,0,0,1.42,0l3.53-3.54A1,1,0,0,0,36.24,22.76Z"/></g></g></svg>