<svg xmlns="http://www.w3.org/2000/svg" width="64" height="64" viewBox="0 0 64 64"><defs><style>.cls-1{fill:#324175;}.cls-2{fill:#fff;}.cls-3{fill:#62d08e;}</style></defs><title>lunie_icon_vote</title><g id="Vrstva_2" data-name="Vrstva 2"><g id="Vrstva_1-2" data-name="Vrstva 1"><circle class="cls-1" cx="32" cy="32" r="32"/><path class="cls-2" d="M35,38a1,1,0,0,0-1,1v5a2,2,0,0,1-2,2H20a2,2,0,0,1-2-2V32a2,2,0,0,1,2-2h5a1,1,0,0,0,0-2H20a4,4,0,0,0-4,4V44a4,4,0,0,0,4,4H32a4,4,0,0,0,4-4V39A1,1,0,0,0,35,38Z"/><path class="cls-3" d="M40.14,16H35.86A7.89,7.89,0,0,0,28,23.86v4.28A7.89,7.89,0,0,0,35.86,36h4.28A7.89,7.89,0,0,0,48,28.14V23.86A7.89,7.89,0,0,0,40.14,16Zm3.38,7.18L37.1,29.65a1,1,0,0,1-.71.3,1,1,0,0,1-.71-.3l-3.57-3.59a1,1,0,0,1,0-1.44,1,1,0,0,1,1.43,0l2.85,2.87,5.71-5.74a1,1,0,0,1,1.42,0A1,1,0,0,1,43.52,23.18Z"/></g></g></svg>