<?xml version="1.0" encoding="UTF-8"?>
<svg width="707px" height="756px" viewBox="0 0 707 756" version="1.1" xmlns="http://www.w3.org/2000/svg" xmlns:xlink="http://www.w3.org/1999/xlink">
    <!-- Generator: Sketch 52.6 (67491) - http://www.bohemiancoding.com/sketch -->
    <title>undraw_confirmed_81ex</title>
    <desc>Created with Sketch.</desc>
    <defs>
        <linearGradient x1="50.003653%" y1="100.017289%" x2="50.003653%" y2="0.00485949042%" id="linearGradient-1">
            <stop stop-color="#808080" stop-opacity="0.25" offset="0%"></stop>
            <stop stop-color="#808080" stop-opacity="0.12" offset="54%"></stop>
            <stop stop-color="#808080" stop-opacity="0.1" offset="100%"></stop>
        </linearGradient>
        <linearGradient x1="49.9976804%" y1="100.008202%" x2="49.9976804%" y2="-0.00680853856%" id="linearGradient-2">
            <stop stop-color="#808080" stop-opacity="0.25" offset="0%"></stop>
            <stop stop-color="#808080" stop-opacity="0.12" offset="54%"></stop>
            <stop stop-color="#808080" stop-opacity="0.1" offset="100%"></stop>
        </linearGradient>
        <linearGradient x1="50%" y1="99.9982817%" x2="50%" y2="-0.00171833116%" id="linearGradient-3">
            <stop stop-color="#808080" stop-opacity="0.25" offset="0%"></stop>
            <stop stop-color="#808080" stop-opacity="0.12" offset="54%"></stop>
            <stop stop-color="#808080" stop-opacity="0.1" offset="100%"></stop>
        </linearGradient>
        <linearGradient x1="49.9948145%" y1="99.9950289%" x2="49.9948145%" y2="-0.00558638589%" id="linearGradient-4">
            <stop stop-color="#808080" stop-opacity="0.25" offset="0%"></stop>
            <stop stop-color="#808080" stop-opacity="0.12" offset="54%"></stop>
            <stop stop-color="#808080" stop-opacity="0.1" offset="100%"></stop>
        </linearGradient>
        <linearGradient x1="50.0067568%" y1="99.9710145%" x2="50.0067568%" y2="-0.0289855072%" id="linearGradient-5">
            <stop stop-color="#808080" stop-opacity="0.25" offset="0%"></stop>
            <stop stop-color="#808080" stop-opacity="0.12" offset="54%"></stop>
            <stop stop-color="#808080" stop-opacity="0.1" offset="100%"></stop>
        </linearGradient>
        <linearGradient x1="49.9899817%" y1="100.001834%" x2="49.9899817%" y2="0.00626914661%" id="linearGradient-6">
            <stop stop-color="#808080" stop-opacity="0.25" offset="0%"></stop>
            <stop stop-color="#808080" stop-opacity="0.12" offset="54%"></stop>
            <stop stop-color="#808080" stop-opacity="0.1" offset="100%"></stop>
        </linearGradient>
        <linearGradient x1="50.0059346%" y1="100.000373%" x2="50.0059346%" y2="-0.00950424519%" id="linearGradient-7">
            <stop stop-color="#808080" stop-opacity="0.25" offset="0%"></stop>
            <stop stop-color="#808080" stop-opacity="0.12" offset="54%"></stop>
            <stop stop-color="#808080" stop-opacity="0.1" offset="100%"></stop>
        </linearGradient>
        <linearGradient x1="50%" y1="100%" x2="50%" y2="-0.00555926173%" id="linearGradient-8">
            <stop stop-color="#808080" stop-opacity="0.25" offset="0%"></stop>
            <stop stop-color="#808080" stop-opacity="0.12" offset="54%"></stop>
            <stop stop-color="#808080" stop-opacity="0.1" offset="100%"></stop>
        </linearGradient>
        <linearGradient x1="49.9970588%" y1="100.02659%" x2="49.9970588%" y2="0.0244947163%" id="linearGradient-9">
            <stop stop-color="#808080" stop-opacity="0.25" offset="0%"></stop>
            <stop stop-color="#808080" stop-opacity="0.12" offset="54%"></stop>
            <stop stop-color="#808080" stop-opacity="0.1" offset="100%"></stop>
        </linearGradient>
    </defs>
    <g id="voyager-ui" stroke="none" stroke-width="1" fill="none" fill-rule="evenodd">
        <g id="undraw_confirmed_81ex" transform="translate(1.000000, 0.000000)">
            <path d="M353,705 C501.564598,705 622,584.564598 622,436 C622,287.435402 501.564598,167 353,167 C204.435402,167 84,287.435402 84,436 C84,584.564598 204.435402,705 353,705 Z" id="Oval" stroke="#2EA42D" stroke-width="2" stroke-dasharray="12"></path>
            <path d="M353.5,711 C516.147859,711 648,579.147859 648,416.5 C648,253.852141 516.147859,122 353.5,122 C190.852141,122 59,253.852141 59,416.5 C59,579.147859 190.852141,711 353.5,711 Z" id="Oval-Copy-3" stroke="#2EA42D" stroke-width="2" stroke-dasharray="12"></path>
            <path d="M353,717 C530.835689,717 675,572.835689 675,395 C675,217.164311 530.835689,73 353,73 C175.164311,73 31,217.164311 31,395 C31,572.835689 175.164311,717 353,717 Z" id="Oval" stroke="#2EA42D" stroke-width="2" stroke-dasharray="12"></path>
            <path d="M352.5,721 C547.180374,721 705,563.180374 705,368.5 C705,173.819626 547.180374,16 352.5,16 C157.819626,16 0,173.819626 0,368.5 C0,563.180374 157.819626,721 352.5,721 Z" id="Oval-Copy-4" stroke="#2EA42D" stroke-width="2" stroke-dasharray="12"></path>
            <path d="M593.94,510.26 C593.950233,468.346896 562.062232,433.31096 520.333225,429.386879 C478.604219,425.462797 440.743637,453.939766 432.94,495.12 L183.35,488.35 L186.09,531.23 C186.09,531.23 150.5,613.35 337.55,635.23 L337.55,718.23 L553.79,718.23 L553.79,580.23 C578.637876,565.680315 593.916365,539.054265 593.94,510.26 Z" id="Path" fill="url(#linearGradient-1)"></path>
            <path d="M194.66,533.03 C194.66,533.03 160.58,611.67 339.71,632.65 L339.71,712.17 L546.8,712.17 L546.8,501.58 L192,491.96 L194.66,533.03 Z" id="Path" fill="#BE7C5E"></path>
            <path d="M298.16,194.86 C286.918972,212.598202 263.462874,217.928321 245.66,206.79 L134.47,133.52 C116.731798,122.278972 111.401679,98.8228745 122.54,81.02 C133.779388,63.3061486 157.205466,57.9787923 175,69.09 L286.19,142.36 C303.942309,153.587877 309.29093,177.046745 298.16,194.86 Z" id="Path" fill="url(#linearGradient-2)"></path>
            <path d="M301.809821,189.147557 C290.163131,207.525758 265.860904,213.048539 247.415271,201.508941 L132.172391,125.534914 C113.794189,113.888223 108.271408,89.5859961 119.811006,71.1403633 C131.457696,52.7621619 155.759923,47.2393813 174.205556,58.7789788 L289.426144,134.708421 C307.839387,146.349574 313.375571,170.686858 301.809821,189.147557 Z" id="Path" fill="#BE7C5E"></path>
            <circle id="Oval" fill="#BE7C5E" cx="507.49" cy="512.94" r="77.77"></circle>
            <rect id="Rectangle" fill="url(#linearGradient-3)" x="183.32" y="0" width="322.42" height="581.96" rx="12.25"></rect>
            <rect id="Rectangle" fill="#FFFFFF" x="187.67" y="7.87" width="313.7" height="566.24" rx="13.64"></rect>
            <path d="M423.33,22.07 C421.454869,34.4780482 410.808881,43.663238 398.26,43.7 L289.92,43.7 C277.374914,43.6583135 266.734551,34.4743134 264.86,22.07 L207.46,22.07 C204.299539,22.0673464 201.267615,23.3209748 199.031893,25.5548207 C196.796171,27.7886667 195.539999,30.8195382 195.54,33.98 L195.54,547.98 C195.537346,551.140461 196.790975,554.172385 199.024821,556.408107 C201.258667,558.643829 204.289538,559.900001 207.45,559.9 L481.59,559.9 C484.750461,559.902654 487.782385,558.649025 490.018107,556.415179 C492.253829,554.181333 493.510001,551.150462 493.51,547.99 L493.51,33.99 C493.512654,30.8295393 492.259025,27.7976146 490.025179,25.561893 C487.791333,23.3261715 484.760462,22.0699989 481.6,22.07 L423.33,22.07 Z" id="Path" fill="#282C49"></path>
            <rect id="Rectangle" fill="#DBDBDB" x="310.01" y="28.84" width="69.91" height="4.37" rx="2"></rect>
            <circle id="Oval" fill="#DBDBDB" cx="394.77" cy="30.59" r="2.62"></circle>
            <path d="M557.76,526.66 C535.19,531.88 519.7,517.16 514.48,494.6 L462.62,302.03 C457.460006,279.382465 471.55437,256.818081 494.17,251.52 C516.817535,246.360006 539.381919,260.45437 544.68,283.07 L587,480.61 C592.22,503.18 580.32,521.44 557.76,526.66 Z" id="Path" fill="url(#linearGradient-4)"></path>
            <rect id="Rectangle" fill="#BE7C5E" transform="translate(528.223373, 398.947222) rotate(-13.010000) translate(-528.223373, -398.947222) " x="492.833373" y="257.642222" width="70.78" height="282.61" rx="35.39"></rect>
            <rect id="Rectangle" fill="url(#linearGradient-5)" x="288.93" y="686.15" width="296" height="69"></rect>
            <rect id="Rectangle" fill="#4D8AF0" x="296.93" y="694.15" width="280" height="54"></rect>
            <path d="M254.977736,411.867736 C243.873267,429.395084 220.697615,434.662887 203.107736,423.657736 L128.537736,375.407736 C111.010389,364.303267 105.742586,341.127615 116.747736,323.537736 C127.852206,306.010389 151.027858,300.742586 168.617736,311.747736 L243.187736,359.997736 C260.715084,371.102206 265.982887,394.277858 254.977736,411.867736 Z" id="Path" fill="url(#linearGradient-6)"></path>
            <path d="M254.977736,286.867736 C243.873267,304.395084 220.697615,309.662887 203.107736,298.657736 L128.537736,250.407736 C111.010389,239.303267 105.742586,216.127615 116.747736,198.537736 C127.852206,181.010389 151.027858,175.742586 168.617736,186.747736 L243.187736,234.997736 C260.715084,246.102206 265.982887,269.277858 254.977736,286.867736 Z" id="Path-Copy" fill="url(#linearGradient-6)"></path>
            <path d="M236.28,523.57 C225.076563,541.258145 201.689908,546.575325 183.94,535.47 L137.75,501.79 C120.061855,490.586563 114.744675,467.199908 125.85,449.45 C137.053437,431.761855 160.440092,426.444675 178.19,437.55 L224.38,471.24 C242.062053,482.443031 247.378541,505.822175 236.28,523.57 Z" id="Path" fill="url(#linearGradient-7)"></path>
            <g id="Group" opacity="0.5" transform="translate(254.000000, 201.000000)" fill="url(#linearGradient-8)">
                <circle id="Oval" cx="90.52" cy="89.99" r="89.94"></circle>
            </g>
            <circle id="Oval" fill="#2EA42D" cx="344.52" cy="290.99" r="84.65"></circle>
            <polygon id="Path" fill="#FFFFFF" points="307.78 279.69 339.52 308.79 384.49 242.66 400.37 255.89 339.52 335.25 294.55 284.99"></polygon>
            <path d="M235.544329,534.909637 C223.897639,553.287838 199.595411,558.810619 181.149779,547.271021 L133.130983,512.315835 C114.752782,500.669144 109.230001,476.366917 120.769599,457.921284 C132.416289,439.543083 156.718516,434.020302 175.164149,445.5599 L223.171798,480.581965 C241.513236,492.222242 247.036551,516.475071 235.544329,534.909637 Z" id="Path" fill="#BE7C5E"></path>
            <path d="M255.998017,420.915156 C244.351327,439.293357 220.0491,444.816138 201.603467,433.27654 L123.400155,382.671774 C105.021953,371.025084 99.4991726,346.722857 111.03877,328.277224 C122.685461,309.899023 146.987688,304.376242 165.43332,315.91584 L243.636633,366.520606 C262.014834,378.167296 267.537615,402.469523 255.998017,420.915156 Z" id="Path" fill="#BE7C5E"></path>
            <path d="M274.28,309.79 C263.120788,327.394197 239.840625,332.683722 222.17,321.63 L127.67,260.1 C110.065803,248.940788 104.776278,225.660625 115.83,207.99 C126.989212,190.385803 150.269375,185.096278 167.94,196.15 L262.44,257.68 C280.044197,268.839212 285.333722,292.119375 274.28,309.79 Z" id="Path" fill="url(#linearGradient-9)"></path>
            <path d="M276.462852,306.9987 C264.816162,325.376902 240.513935,330.899682 222.068302,319.360085 L123.411301,255.123242 C105.0331,243.476551 99.510319,219.174324 111.049917,200.728692 C122.696607,182.35049 146.998834,176.827709 165.444467,188.367307 L264.090321,252.60415 C282.472453,264.247177 288.000389,288.550175 276.462852,306.9987 Z" id="Path" fill="#BE7C5E"></path>
        </g>
    </g>
</svg>