<?xml version="1.0" encoding="UTF-8"?>
<svg width="256px" height="342px" viewBox="0 0 256 342" version="1.1" xmlns="http://www.w3.org/2000/svg" xmlns:xlink="http://www.w3.org/1999/xlink">
    <!-- Generator: Sketch 51.1 (57501) - http://www.bohemiancoding.com/sketch -->
    <title>validator-icon</title>
    <desc>Created with Sketch.</desc>
    <defs></defs>
    <g id="Page-1" stroke="none" stroke-width="1" fill="none" fill-rule="evenodd">
        <g id="validator-icon">
            <rect id="Rectangle-path" fill-opacity="0" fill="#000000" fill-rule="nonzero" x="0" y="0" width="256" height="342"></rect>
            <path d="M128,341.25 L128,143.25 L25.9735,193.878 C25.9735,193.878 22.8432,190.668 63.5596,235.121 C104.276,279.574 128,341.25 128,341.25 Z" id="Shape" fill="#B7B9C8"></path>
            <path d="M128,341.25 L128,143.25 L230.027,193.878 C230.027,193.878 233.157,190.668 192.44,235.121 C151.724,279.574 128,341.25 128,341.25 Z" id="Shape" fill="#B7B9C8"></path>
            <path d="M255.754,117.25 C255.754,187.807 198.557,245.004 128,245.004 C57.4434,245.004 0.245789,187.807 0.245789,117.25 L255.754,117.25 Z" id="Shape" fill="#B7B9C8"></path>
            <path d="M128,3.24868 C190.972,3.24868 242.02,54.2892 242.02,117.25 C242.02,180.211 190.972,231.251 128,231.251 C65.028,231.251 13.9796,180.211 13.9796,117.25 C13.9796,54.2892 65.028,3.24868 128,3.24868 Z" id="Shape" stroke="#6F7390" stroke-width="4.55" fill="#2E3148" fill-rule="nonzero"></path>
            <rect id="Rectangle-path" fill-opacity="0" fill="#000000" fill-rule="nonzero" x="36.75" y="18.5" width="184" height="198.25"></rect>
            <path d="M128.158,52.6298 C164.054,52.6298 193.154,81.7291 193.154,117.625 C193.154,153.521 164.054,182.62 128.158,182.62 C92.2625,182.62 63.1631,153.521 63.1631,117.625 C63.1631,81.7291 92.2625,52.6298 128.158,52.6298 Z" id="Shape" fill="#1B1E36"></path>
            <path d="M128.71,21.1913 C129.506,21.1913 130.477,21.5443 131.638,22.6132 C132.812,23.693 134.049,25.3914 135.297,27.7646 C137.79,32.5066 140.102,39.513 142.068,48.3563 C145.993,66.0072 148.439,90.4985 148.439,117.625 C148.439,144.751 145.993,169.243 142.068,186.894 C140.102,195.737 137.79,202.743 135.297,207.485 C134.049,209.859 132.812,211.557 131.638,212.637 C130.477,213.706 129.506,214.059 128.71,214.059 C127.914,214.059 126.944,213.706 125.782,212.637 C124.609,211.557 123.371,209.859 122.123,207.485 C119.63,202.743 117.319,195.737 115.352,186.894 C111.428,169.243 108.981,144.751 108.981,117.625 C108.981,90.4985 111.428,66.0072 115.352,48.3563 C117.319,39.513 119.63,32.5066 122.123,27.7646 C123.371,25.3914 124.609,23.693 125.782,22.6132 C126.944,21.5443 127.914,21.1913 128.71,21.1913 Z" id="Shape" stroke="#6F7390" stroke-width="4.40683"></path>
            <path d="M212.276,69.4092 C212.674,70.0974 212.853,71.1128 212.508,72.6522 C212.159,74.2073 211.306,76.1277 209.873,78.3942 C207.01,82.9228 202.095,88.4268 195.414,94.5504 C182.081,106.773 162.081,121.136 138.574,134.699 C115.067,148.262 92.6203,158.39 75.3619,163.819 C66.7153,166.539 59.4876,168.041 54.1315,168.255 C51.4509,168.361 49.3599,168.139 47.8372,167.663 C46.3298,167.193 45.5391,166.529 45.1414,165.841 C44.7439,165.153 44.5644,164.137 44.9099,162.598 C45.2589,161.043 46.1117,159.122 47.5444,156.856 C50.4072,152.327 55.323,146.823 62.0031,140.7 C75.3365,128.477 95.3366,114.114 118.843,100.551 C142.35,86.9879 164.797,76.8597 182.056,71.4312 C190.702,68.7114 197.93,67.2089 203.286,66.9955 C205.967,66.8887 208.058,67.1108 209.58,67.5865 C211.088,68.0575 211.878,68.7209 212.276,69.4092 Z" id="Shape" stroke="#6F7390" stroke-width="4.40683"></path>
            <path d="M212.276,69.4092 C212.674,70.0974 212.853,71.1128 212.508,72.6522 C212.159,74.2073 211.306,76.1277 209.873,78.3942 C207.01,82.9228 202.095,88.4268 195.414,94.5504 C182.081,106.773 162.081,121.136 138.574,134.699 C115.067,148.262 92.6203,158.39 75.3619,163.819 C66.7153,166.539 59.4876,168.041 54.1315,168.255 C51.4509,168.361 49.3599,168.139 47.8372,167.663 C46.3298,167.193 45.5391,166.529 45.1414,165.841 C44.7439,165.153 44.5644,164.137 44.9099,162.598 C45.2589,161.043 46.1117,159.122 47.5444,156.856 C50.4072,152.327 55.323,146.823 62.0031,140.7 C75.3365,128.477 95.3366,114.114 118.843,100.551 C142.35,86.9879 164.797,76.8597 182.056,71.4312 C190.702,68.7114 197.93,67.2089 203.286,66.9955 C205.967,66.8887 208.058,67.1108 209.58,67.5865 C211.088,68.0575 211.878,68.7209 212.276,69.4092 Z" id="Shape-Copy" stroke="#6F7390" stroke-width="4.40683" transform="translate(128.708827, 117.625086) scale(-1, 1) translate(-128.708827, -117.625086) "></path>
            <path d="M65.6648,90.0021 C69.4956,90.0021 72.601,93.109 72.601,96.9416 C72.601,100.774 69.4956,103.881 65.6648,103.881 C61.8341,103.881 58.7286,100.774 58.7286,96.9416 C58.7286,93.109 61.8341,90.0021 65.6648,90.0021 Z" id="Shape" fill="#B7B9C8"></path>
            <path d="M175.903,66.2382 C179.735,66.2382 182.842,69.3451 182.842,73.1778 C182.842,77.0104 179.735,80.1174 175.903,80.1174 C172.07,80.1174 168.963,77.0104 168.963,73.1778 C168.963,69.3451 172.07,66.2382 175.903,66.2382 Z" id="Shape" fill="#B7B9C8"></path>
            <path d="M114.733,175.159 C118.565,175.159 121.672,178.265 121.672,182.095 C121.672,185.926 118.565,189.032 114.733,189.032 C110.9,189.032 107.793,185.926 107.793,182.095 C107.793,178.265 110.9,175.159 114.733,175.159 Z" id="Shape" fill="#B7B9C8"></path>
            <path d="M128.826,105.825 C135.317,105.825 140.578,111.086 140.578,117.576 C140.578,124.067 135.317,129.328 128.826,129.328 C122.336,129.328 117.075,124.067 117.075,117.576 C117.075,111.086 122.336,105.825 128.826,105.825 Z" id="Shape" fill="#B7B9C8"></path>
        </g>
    </g>
</svg>