<?xml version="1.0" standalone="no"?>
<!DOCTYPE svg PUBLIC "-//W3C//DTD SVG 20010904//EN"
 "http://www.w3.org/TR/2001/REC-SVG-20010904/DTD/svg10.dtd">
<svg version="1.0" xmlns="http://www.w3.org/2000/svg"
 width="1024.000000pt" height="1024.000000pt" viewBox="0 0 1024.000000 1024.000000"
 preserveAspectRatio="xMidYMid meet">
<metadata>
Created by potrace 1.11, written by Peter Selinger 2001-2013
</metadata>
<g transform="translate(0.000000,1024.000000) scale(0.100000,-0.100000)"
fill="#000000" stroke="none">
<path d="M5003 8450 c-277 -168 -485 -331 -709 -555 -349 -348 -588 -702 -785
-1160 -135 -316 -236 -724 -265 -1067 -3 -43 -4 -78 -1 -78 4 0 30 14 58 31
69 41 235 124 327 164 40 18 73 35 73 38 0 4 4 21 9 38 5 18 12 51 16 73 14
96 98 400 135 492 7 16 13 34 15 39 6 28 95 224 145 320 125 243 260 441 454
665 126 147 400 388 577 509 l77 53 98 -68 c598 -413 1035 -1032 1237 -1750
26 -93 73 -315 82 -387 3 -23 7 -55 9 -72 32 -213 26 -703 -10 -871 -3 -12 -7
-39 -10 -60 -28 -184 -111 -475 -189 -664 -50 -118 -137 -294 -200 -398 -33
-57 -65 -111 -71 -121 -5 -9 -36 -53 -67 -98 -187 -266 -421 -510 -678 -707
-41 -32 -76 -61 -77 -64 -3 -11 55 -44 214 -124 221 -111 200 -108 281 -41 81
69 342 329 397 397 22 27 45 54 51 60 27 29 176 231 227 309 50 76 207 343
207 352 0 1 22 49 49 106 144 307 247 646 297 969 3 25 8 52 9 60 4 19 14 112
24 225 9 91 7 549 -3 595 -2 14 -7 54 -11 90 -3 36 -7 72 -10 80 -2 8 -6 36
-9 62 -8 68 -55 296 -80 383 -1 6 -8 30 -15 55 -113 418 -341 869 -619 1230
-218 282 -504 554 -777 740 -44 30 -82 57 -85 60 -3 3 -21 15 -40 26 -19 12
-72 44 -118 73 -46 28 -93 53 -105 55 -15 3 -59 -18 -134 -64z"/>
<path d="M4938 5975 c-2 -2 -50 -6 -108 -9 -58 -4 -112 -9 -120 -11 -8 -2 -40
-6 -70 -10 -53 -5 -76 -9 -137 -20 -16 -3 -44 -8 -63 -11 -27 -4 -220 -50
-285 -68 -281 -76 -629 -227 -880 -380 -806 -494 -1384 -1265 -1624 -2168 -46
-174 -83 -367 -97 -513 -3 -38 -8 -79 -11 -90 -2 -11 -7 -114 -10 -230 l-6
-210 39 -22 c22 -11 57 -31 79 -44 177 -101 442 -218 640 -284 102 -33 305
-89 364 -100 14 -3 37 -7 51 -10 382 -79 834 -91 1215 -34 285 42 549 113 810
215 100 39 264 111 274 120 5 5 -25 28 -59 46 -35 17 -299 192 -334 221 l-29
24 -141 -48 c-144 -48 -345 -102 -426 -114 -24 -4 -47 -8 -50 -10 -3 -2 -30
-6 -60 -10 -30 -3 -62 -8 -70 -10 -8 -2 -51 -7 -95 -11 -44 -3 -89 -8 -100
-10 -31 -6 -404 -6 -455 0 -25 3 -74 8 -110 11 -79 7 -220 30 -315 51 -38 8
-81 17 -95 20 -14 3 -43 10 -65 16 -22 5 -41 10 -42 9 -12 -3 -315 108 -355
129 -10 6 -22 10 -27 10 -5 0 -53 21 -105 46 l-96 46 5 66 c17 231 63 484 120
672 14 47 27 92 29 100 3 8 20 58 39 110 365 991 1211 1749 2220 1990 151 36
155 37 312 60 208 32 612 33 815 4 320 -47 588 -119 845 -229 55 -24 102 -42
104 -40 9 9 -3 354 -14 413 -2 9 -4 28 -4 42 -1 29 -1 29 -200 96 -238 79
-461 128 -731 159 -14 2 -50 6 -80 10 -52 6 -486 15 -492 10z"/>
<path d="M7139 5268 c0 -46 -2 -99 -4 -118 -1 -19 -6 -78 -10 -130 -4 -52 -10
-115 -14 -140 -6 -44 -5 -46 39 -85 437 -387 721 -794 912 -1305 61 -165 128
-409 144 -527 3 -26 8 -51 10 -54 2 -4 6 -28 10 -55 3 -27 7 -60 9 -74 5 -34
16 -145 19 -198 l3 -43 -81 -38 c-158 -75 -438 -180 -521 -195 -11 -2 -56 -13
-100 -25 -328 -84 -726 -107 -1102 -65 -222 24 -525 97 -733 176 -159 60 -431
190 -502 239 -14 11 -29 19 -32 19 -22 0 -345 235 -441 320 -74 66 -261 255
-322 325 -252 292 -467 671 -593 1045 -30 90 -92 319 -104 385 -24 139 -33
194 -41 269 -3 28 -8 52 -10 54 -10 10 -405 -246 -405 -262 0 -2 5 -28 10 -57
6 -30 13 -67 16 -84 80 -454 325 -1016 613 -1405 31 -41 66 -91 80 -110 13
-19 26 -37 30 -40 3 -3 31 -34 61 -70 409 -485 951 -859 1543 -1066 215 -75
463 -137 630 -159 16 -2 40 -6 55 -9 186 -36 762 -44 937 -12 11 2 43 7 70 10
28 4 66 10 85 12 93 14 330 71 460 111 258 80 464 168 704 301 l139 77 -7 195
c-4 107 -8 209 -10 225 -12 108 -19 161 -32 249 -8 54 -16 101 -18 105 -2 3
-7 24 -10 46 -24 151 -123 484 -191 640 -7 17 -27 64 -45 105 -152 362 -435
774 -741 1079 -140 141 -401 358 -496 415 -10 5 -13 -12 -14 -76z"/>
<path d="M5010 5143 c-98 -17 -297 -93 -320 -122 -3 -4 -18 -15 -34 -25 -124
-79 -266 -281 -302 -428 -22 -93 -26 -121 -28 -203 -9 -369 228 -692 586 -796
96 -28 275 -34 373 -13 324 68 585 335 635 650 11 70 15 219 6 245 -3 8 -7 31
-11 52 -30 210 -197 437 -406 551 -112 61 -216 88 -354 91 -66 1 -131 1 -145
-2z m272 -466 c102 -50 173 -137 201 -247 13 -51 14 -90 3 -163 -8 -50 -57
-138 -102 -181 -24 -23 -69 -55 -101 -71 -52 -26 -68 -29 -153 -30 -81 0 -103
4 -150 26 -138 64 -221 197 -215 344 3 73 9 95 34 149 65 133 187 206 341 203
70 -2 95 -7 142 -30z"/>
</g>
</svg>
