<?xml version="1.0" standalone="no"?>
<!DOCTYPE svg PUBLIC "-//W3C//DTD SVG 20010904//EN"
 "http://www.w3.org/TR/2001/REC-SVG-20010904/DTD/svg10.dtd">
<svg version="1.0" xmlns="http://www.w3.org/2000/svg"
 width="942.000000pt" height="942.000000pt" viewBox="0 0 942.000000 942.000000"
 preserveAspectRatio="xMidYMid meet">
<metadata>
Created by potrace 1.11, written by Peter Selinger 2001-2013
</metadata>
<g transform="translate(0.000000,942.000000) scale(0.100000,-0.100000)"
fill="#000000" stroke="none">
<path d="M4448 9415 c-2 -1 -48 -6 -103 -9 -55 -4 -113 -9 -130 -11 -16 -3
-52 -7 -80 -10 -118 -14 -310 -47 -440 -76 -49 -11 -101 -22 -115 -25 -62 -13
-281 -78 -414 -124 -261 -90 -575 -233 -779 -354 -43 -25 -81 -46 -84 -46 -4
0 -20 -10 -37 -23 -17 -13 -38 -26 -46 -29 -8 -3 -77 -49 -152 -100 -435 -298
-805 -650 -1119 -1065 -326 -431 -584 -936 -743 -1453 -38 -123 -110 -409
-120 -475 -6 -43 -11 -70 -26 -150 -5 -27 -12 -72 -15 -100 -3 -27 -7 -66 -10
-85 -35 -226 -41 -821 -10 -1060 2 -14 6 -50 10 -80 69 -588 278 -1228 571
-1740 67 -118 63 -114 82 -97 34 30 629 393 815 497 40 23 79 45 87 51 57 36
402 219 585 309 678 333 1074 435 1257 322 144 -89 120 -390 -65 -852 -125
-311 -381 -815 -620 -1220 -183 -310 -415 -687 -445 -722 -16 -19 -19 -16 103
-86 323 -184 771 -363 1144 -456 122 -31 324 -74 376 -81 11 -1 40 -6 65 -9
25 -4 56 -9 70 -11 36 -5 130 -17 165 -20 17 -2 68 -6 115 -11 109 -10 598
-11 715 -1 148 12 198 17 235 22 19 3 55 8 80 11 25 3 52 7 60 9 8 3 35 7 60
10 25 3 90 15 145 26 623 128 1179 360 1705 712 77 52 282 203 334 247 346
293 572 527 807 840 193 256 386 582 525 885 108 236 226 585 289 855 13 54
55 262 60 295 3 22 7 54 10 70 3 17 7 46 10 65 3 19 8 58 10 85 3 28 7 64 10
80 27 191 27 717 0 970 -18 171 -21 188 -65 430 -102 549 -343 1145 -668 1645
-94 146 -266 379 -327 446 -5 6 -32 38 -60 70 -51 60 -215 235 -271 289 -68
65 -152 143 -219 202 -79 69 -309 249 -340 265 -11 6 -22 14 -25 18 -8 11
-221 150 -230 150 -5 0 -10 4 -12 8 -5 12 -219 133 -365 206 -435 218 -915
370 -1391 441 -134 20 -153 23 -237 30 -38 4 -83 9 -100 11 -34 5 -632 14
-637 9z m2654 -4190 l-935 -2806 -521 521 -521 520 -160 -5 c-88 -3 -205 -8
-260 -10 -55 -3 -178 -7 -273 -10 l-172 -6 -416 416 -416 415 7 168 c3 92 8
214 10 272 2 58 6 177 10 265 l6 160 -521 521 -521 521 2803 935 c1542 514
2806 933 2809 932 3 -2 -415 -1266 -929 -2809z"/>
</g>
</svg>
