<?xml version="1.0" encoding="UTF-8"?>
<svg width="1024px" height="256px" viewBox="0 0 1024 256" version="1.1" xmlns="http://www.w3.org/2000/svg" xmlns:xlink="http://www.w3.org/1999/xlink">
    <!-- Generator: Sketch 49.2 (51160) - http://www.bohemiancoding.com/sketch -->
    <title>wordmark/white</title>
    <desc>Created with Sketch.</desc>
    <defs></defs>
    <g id="wordmark/white" stroke="none" stroke-width="1" fill="none" fill-rule="evenodd">
        <g id="text" transform="translate(0.000000, 37.000000)" fill="#FFFFFF">
            <path d="M113.777778,133.802372 L99.7342478,119.580663 C94.3998651,124.557062 89.0079171,128.499809 83.5536067,131.404108 C78.1040935,134.306008 71.5848254,135.756958 64.0005996,135.756958 C58.0737743,135.756958 52.5930798,134.603393 47.5561177,132.291465 C42.5191556,129.979538 38.1633827,126.811431 34.4887989,122.779948 C30.8142152,118.750863 27.9719294,114.040671 25.954746,108.649372 C23.9399612,103.258073 22.9349673,97.4782552 22.9349673,91.3195115 C22.9349673,85.1559713 23.9399612,79.4073308 25.954746,74.0735901 C27.9719294,68.7422477 30.8142152,64.0920125 34.4887989,60.1204862 C38.1633827,56.1513581 42.5191556,53.0120296 47.5561177,50.7001025 C52.5930798,48.3905736 58.0737743,47.23461 64.0005996,47.23461 C71.1099118,47.23461 77.451687,48.656781 83.0211279,51.5011229 C88.5929674,54.3430665 93.8673862,58.0771647 98.8419859,62.6986207 L112.887914,46.5247236 C109.925701,43.6803817 106.785995,41.073468 103.466397,38.7015842 C100.149198,36.3320987 96.5345776,34.2863789 92.622537,32.5692214 C88.7104965,30.8496656 84.4146874,29.5186287 79.7327112,28.5713142 C75.050735,27.6216014 69.8650626,27.146745 64.1780926,27.146745 C54.6966111,27.146745 46.0450291,28.8375216 38.2233465,32.2142782 C30.3992654,35.5910349 23.6449391,40.212491 17.9555705,46.0786464 C12.2662019,51.9448018 7.85286374,58.787051 4.71075882,66.6101904 C1.56865391,74.4309316 0,82.7864857 0,91.6744547 C0,100.679939 1.5998351,109.093051 4.7995053,116.916191 C7.9991755,124.734533 12.4149123,131.519224 18.044317,137.267865 C23.6737218,143.014107 30.3393016,147.546827 38.043455,150.866025 C45.7476085,154.185224 54.1641323,155.842425 63.2882293,155.842425 C69.0975256,155.842425 74.4007271,155.338789 79.2002324,154.331518 C83.9997377,153.324247 88.4154744,151.844517 92.4450441,149.889932 C96.4746137,147.932948 100.237944,145.621021 103.735035,142.956549 C107.229727,140.289678 110.578108,137.236687 113.777778,133.802372" id="Fill-3"></path>
            <path d="M395.869162,62.3807746 C395.869162,58.2412801 397.63682,54.7239061 401.17452,51.8286528 C404.709835,48.9286139 409.662139,47.4809872 416.02666,47.4809872 C421.685072,47.4809872 427.283846,48.5768765 432.822983,50.7638695 C438.364506,52.9508625 443.963281,56.1141063 449.619307,60.251208 L461.289186,43.7578349 C454.927051,38.6731957 448.118826,34.8016916 440.869284,32.1433226 C433.617356,29.4825608 425.456551,28.15218 416.379714,28.15218 C410.251358,28.15218 404.592946,29.0087921 399.435489,30.7244092 C394.249406,32.4376335 389.831455,34.8902242 386.145854,38.0821812 C382.462638,41.276531 379.573794,45.0882158 377.453082,49.5220212 C375.360996,53.9558265 374.299448,58.8921139 374.299448,64.3308832 C374.299448,70.1237828 375.213095,75.0313569 377.04039,79.0512128 C378.867685,83.0710687 381.54899,86.4999101 385.027053,89.3377369 C388.50273,92.1755638 392.834803,94.5396219 397.961248,96.4323041 C403.118705,98.3249863 408.984656,100.035818 415.613968,101.57437 C421.391655,102.993283 426.074397,104.352377 429.700361,105.651652 C433.295313,106.95332 436.124519,108.34352 438.216605,109.81986 C440.277679,111.298593 441.694668,112.923284 442.460414,114.696328 C443.22616,116.471764 443.607841,118.4793 443.607841,120.726112 C443.607841,125.57626 441.63503,129.41905 437.687023,132.254484 C433.736631,135.094704 428.402647,136.511225 421.685072,136.511225 C413.905948,136.511225 406.949822,135.121025 400.821466,132.343017 C394.690724,129.565009 388.622005,125.57626 382.608153,120.371982 L369.526057,135.980029 C376.952127,142.718074 385.027053,147.71418 393.748451,150.965957 C402.472234,154.217733 411.606323,155.842425 421.153105,155.842425 C427.636901,155.842425 433.591115,155.014526 439.013363,153.361121 C444.404599,151.70293 449.0611,149.279053 452.892217,146.087096 C456.75196,142.895139 459.757694,138.994921 461.938043,134.384051 C464.089766,129.773181 465.179941,124.511476 465.179941,118.598938 C465.179941,113.397053 464.325931,108.874715 462.615526,105.031924 C460.90512,101.189134 458.371717,97.8225043 455.072566,94.9224654 C451.771031,92.027212 447.586859,89.5722285 442.577304,87.5623006 C437.570134,85.5547654 431.792446,83.7219025 425.30865,82.0661047 C419.385447,80.6471913 414.523793,79.2857044 410.66405,77.9864295 C406.832932,76.6871547 403.827199,75.2682412 401.615838,73.7296892 C399.435489,72.19353 397.935008,70.5377322 397.107238,68.7646886 C396.28424,66.9892522 395.869162,64.8620785 395.869162,62.3807746" id="Fill-4"></path>
            <polyline id="Fill-5" points="637.905147 64.1376718 637.905147 152.82612 659.508358 152.82612 659.508358 29.1576149 636.309156 29.1576149 598.590742 87.6356888 560.872329 29.1576149 537.675516 29.1576149 537.675516 152.82612 559.278728 152.82612 559.278728 64.4904519 598.057949 122.439356 598.767544 122.439356 637.905147 64.1376718"></polyline>
            <path d="M841.015896,91.6744547 C841.015896,97.7180817 839.981657,103.435545 837.910786,108.829242 C835.842309,114.220541 832.974213,118.899555 829.304103,122.868684 C825.63878,126.837812 821.231297,129.979538 816.086439,132.291465 C810.939187,134.603393 805.291575,135.756958 799.141207,135.756958 C792.988446,135.756958 787.30971,134.572215 782.105001,132.20273 C776.900291,129.830846 772.432956,126.631561 768.707782,122.604874 C764.982608,118.573391 762.083389,113.8632 760.012518,108.471901 C757.944041,103.080602 756.907408,97.3607403 756.907408,91.3195115 C756.907408,85.2734862 757.944041,79.5560232 760.012518,74.1647242 C762.083389,68.7710269 764.951485,64.0920125 768.619201,60.1204862 C772.286917,56.1513581 776.694401,53.0120296 781.839259,50.7001025 C786.984117,48.3905736 792.634123,47.23461 798.784491,47.23461 C804.937252,47.23461 810.615988,48.4193527 815.820697,50.7912365 C821.023012,53.160722 825.490348,56.3600071 829.215522,60.3890918 C832.94309,64.4157782 835.842309,69.1283683 837.910786,74.5196674 C839.981657,79.9109664 841.015896,85.6308277 841.015896,91.6744547 Z M863.905605,91.3195115 C863.905605,82.5490575 862.30876,74.25346 859.115069,66.4303206 C855.923773,58.6119777 851.485167,51.7961094 845.808825,45.9899106 C840.13009,40.1813135 833.328535,35.5910349 825.399373,32.2142782 C817.475,28.8375216 808.722278,27.146745 799.141207,27.146745 C789.557743,27.146745 780.805021,28.8663007 772.878253,32.303014 C764.951485,35.7397273 758.090079,40.3899626 752.294034,46.256118 C746.495595,52.1222734 742.004319,58.9669209 738.808234,66.787662 C735.614544,74.6084032 734.017699,82.9040007 734.017699,91.6744547 C734.017699,100.44251 735.614544,108.73571 738.808234,116.558849 C742.004319,124.381989 746.438137,131.195459 752.116873,137.001657 C757.793214,142.807856 764.597163,147.400533 772.52393,150.77729 C780.448304,154.154046 789.201026,155.842425 798.784491,155.842425 C808.365561,155.842425 817.120677,154.122869 825.045051,150.688554 C832.974213,147.251841 839.833225,142.601605 845.631664,136.733052 C851.427709,130.869295 855.923773,124.024647 859.115069,116.203906 C862.30876,108.383165 863.905605,100.087567 863.905605,91.3195115 Z" id="Fill-6"></path>
            <path d="M954.689221,62.3807746 C954.689221,58.2412801 956.456879,54.7239061 959.992194,51.8286528 C963.529894,48.9286139 968.479812,47.4809872 974.846719,47.4809872 C980.502745,47.4809872 986.103905,48.5768765 991.643042,50.7638695 C997.18218,52.9508625 1002.78334,56.1141063 1008.44175,60.251208 L1020.10925,43.7578349 C1013.74472,38.6731957 1006.9365,34.8016916 999.686957,32.1433226 C992.4398,29.4825608 984.27661,28.15218 975.199773,28.15218 C969.071417,28.15218 963.413005,29.0087921 958.255548,30.7244092 C953.069465,32.4376335 948.651514,34.8902242 944.965913,38.0821812 C941.282697,41.276531 938.396239,45.0882158 936.270756,49.5220212 C934.181055,53.9558265 933.119507,58.8921139 933.119507,64.3308832 C933.119507,70.1237828 934.033154,75.0313569 935.860449,79.0512128 C937.687744,83.0710687 940.369049,86.4999101 943.844727,89.3377369 C947.322789,92.1755638 951.654862,94.5396219 956.783693,96.4323041 C961.938764,98.3249863 967.804715,100.035818 974.434027,101.57437 C980.209328,102.993283 984.894456,104.352377 988.52042,105.651652 C992.112987,106.95332 994.944578,108.34352 997.036664,109.81986 C999.097738,111.298593 1000.51473,112.923284 1001.28047,114.696328 C1002.04622,116.471764 1002.43029,118.4793 1002.43029,120.726112 C1002.43029,125.57626 1000.4527,129.41905 996.507082,132.254484 C992.55669,135.094704 987.222706,136.511225 980.502745,136.511225 C972.723621,136.511225 965.767496,135.121025 959.641525,132.343017 C953.513169,129.565009 947.442064,125.57626 941.428212,120.371982 L928.346116,135.980029 C935.7698,142.718074 943.844727,147.71418 952.56851,150.965957 C961.289907,154.217733 970.423997,155.842425 979.973164,155.842425 C986.45696,155.842425 992.408789,155.014526 997.833422,153.361121 C1003.22466,151.70293 1007.88116,149.279053 1011.71228,146.087096 C1015.57202,142.895139 1018.57775,138.994921 1020.7581,134.384051 C1022.90744,129.773181 1024,124.511476 1024,118.598938 C1024,113.397053 1023.1436,108.874715 1021.43558,105.031924 C1019.72518,101.189134 1017.19178,97.8225043 1013.89024,94.9224654 C1010.59109,92.027212 1006.40692,89.5722285 1001.39736,87.5623006 C996.387807,85.5547654 990.61012,83.7219025 984.128709,82.0661047 C978.205506,80.6471913 973.343852,79.2857044 969.484109,77.9864295 C965.652991,76.6871547 962.647258,75.2682412 960.435897,73.7296892 C958.255548,72.19353 956.752681,70.5377322 955.927297,68.7646886 C955.104299,66.9892522 954.689221,64.8620785 954.689221,62.3807746" id="Fill-7"></path>
            <path d="M261.973495,53.9147879 L202.77945,113.026095 C202.016197,111.547178 201.327115,110.006141 200.709812,108.407763 C198.642567,103.036832 197.608944,97.3385789 197.608944,91.3201729 C197.608944,85.2969885 198.642567,79.601125 200.709812,74.2301934 C202.77945,68.8568726 205.64584,64.1955347 209.311372,60.2390121 C212.976905,56.2848787 217.381765,53.1574101 222.52356,50.854217 C227.667747,48.5534131 233.311997,47.4018165 239.458703,47.4018165 C245.607801,47.4018165 251.283156,48.5820835 256.482374,50.9450067 C258.415632,51.8218448 260.246005,52.8109754 261.973495,53.9147879 Z M256.750351,132.137342 C251.606163,134.440535 245.961913,135.589742 239.815207,135.589742 C233.666109,135.589742 227.990754,134.409475 222.789143,132.048941 C220.858278,131.169714 219.027905,130.180583 217.302807,129.074382 L276.49446,69.9678526 C277.257714,71.444381 277.946795,72.9830287 278.564098,74.5837957 C280.631343,79.9547273 281.664966,85.6529799 281.664966,91.6737752 C281.664966,97.6945704 280.631343,103.390434 278.564098,108.763755 C276.49446,114.134686 273.628071,118.796024 269.962538,122.750158 C266.297005,126.704291 261.894538,129.834149 256.750351,132.137342 Z M265.706022,150.464929 C273.628071,147.041199 280.485392,142.408532 286.277986,136.562149 C292.070581,130.720544 296.561576,123.901754 299.753365,116.110558 C302.947546,108.319363 304.543441,100.055104 304.543441,91.3201729 C304.543441,82.5828522 302.947546,74.318594 299.753365,66.525009 C297.860782,61.9042876 295.530346,57.6371684 292.764448,53.7212623 L331.264503,15.2765733 L315.965929,0 L277.348634,38.56176 C273.881691,36.201226 270.11806,34.1608454 266.060134,32.438229 C258.138085,29.0742291 249.390574,27.3898399 239.815207,27.3898399 C230.237448,27.3898399 221.489937,29.1028995 213.567888,32.5266295 C205.64584,35.9503595 198.788518,40.583027 192.995924,46.4270211 C187.20333,52.2710152 182.709942,59.0898047 179.518153,66.8810005 C176.326364,74.6721962 174.73047,82.9364545 174.73047,91.6737752 C174.73047,100.408707 176.326364,108.670576 179.518153,116.464161 C181.413128,121.087271 183.743564,125.35439 186.509462,129.272686 L148.011799,167.712596 L163.310374,182.98917 L201.925276,144.429799 C205.392219,146.790333 209.15585,148.830713 213.213777,150.55333 C221.135825,153.91733 229.883337,155.59933 239.458703,155.59933 C249.036462,155.59933 257.783973,153.88627 265.706022,150.464929 Z" id="Fill-8"></path>
        </g>
    </g>
</svg>