<svg fill="none" height="200" viewBox="0 0 882 200" width="882" xmlns="http://www.w3.org/2000/svg" xmlns:xlink="http://www.w3.org/1999/xlink"><mask id="a" height="185" maskUnits="userSpaceOnUse" width="866" x="8" y="6"><rect fill="#fefaf6" height="185" rx="4" width="866" x="8" y="6"/></mask><path d="m0 0h882v200h-882z" fill="#fff"/><g mask="url(#a)"><rect fill="#fefaf6" height="185" rx="4" width="866" x="8" y="6"/><path clip-rule="evenodd" d="m630.194 75.1066c-4.147 5.1692-3.342 12.7784 2.187 16.4331 54.865 36.2693 129.341 25.3903 171.315-26.9219 41.973-52.3127 36.455-127.3757-10.842-173.0778-4.766-4.606-12.369-3.743-16.517 1.426z" fill="#fcdcd6" fill-rule="evenodd"/><path clip-rule="evenodd" d="m141.601 118.84c-12.25 2.133-21.039 5.683-28.827 10.689-10.383 6.674-18.2142 15.873-23.145 27.189s-7.0236 23.977-5.4349 43.75l.9845 12.254c1.5886 19.773 5.6759 31.938 12.3501 42.321 6.6743 10.384 15.8733 18.215 27.1893 23.145 11.316 4.931 23.977 7.024 43.75 5.435l12.254-.984c19.773-1.589 31.938-5.676 42.321-12.35 10.384-6.674 18.215-15.874 23.145-27.189 4.931-11.316 7.024-23.977 5.435-43.751l-.984-12.253c-1.589-19.774-5.676-31.938-12.35-42.322-6.675-10.383-15.874-18.214-27.189-23.145-11.316-4.931-23.977-7.024-43.751-5.435l-12.253.985c-4.944.397-9.412.95-13.495 1.661zm28.359 106.603c-14.102 1.133-26.452-9.381-27.585-23.483s9.38-26.452 23.482-27.585 26.453 9.38 27.586 23.482-9.381 26.453-23.483 27.586z" fill="#fabfb7" fill-rule="evenodd" opacity=".5"/><path clip-rule="evenodd" d="m382.904 100.042c0 13.695-10.581 25.036-24.165 26.036-1.736.128-3.247-1.176-3.374-2.911-.128-1.736 1.175-3.247 2.911-3.375 10.298-.758 18.325-9.362 18.325-19.75 0-10.3787-8.015-18.9782-18.302-19.7478-1.736-.1299-3.037-1.6421-2.907-3.3777.129-1.7356 1.642-3.0373 3.377-2.9075 13.571 1.0153 24.135 12.3499 24.135 26.033zm-36.244-17.6946c2.142 0 3.879-1.7365 3.879-3.8785 0-2.1421-1.737-3.8786-3.879-3.8786s-3.879 1.7365-3.879 3.8786c0 2.142 1.737 3.8785 3.879 3.8785zm-6.339 4.2018c0 2.1421-1.737 3.8786-3.879 3.8786s-3.879-1.7365-3.879-3.8786c0-2.142 1.737-3.8785 3.879-3.8785s3.879 1.7365 3.879 3.8785zm-8.442 16.5788c2.142 0 3.878-1.736 3.878-3.8782 0-2.1421-1.736-3.8786-3.878-3.8786-2.143 0-3.879 1.7365-3.879 3.8786 0 2.1422 1.736 3.8782 3.879 3.8782zm8.442 9.8c0 2.142-1.737 3.878-3.879 3.878s-3.879-1.736-3.879-3.878 1.737-3.879 3.879-3.879 3.879 1.737 3.879 3.879zm10.218 8.08c0 2.142-1.737 3.879-3.879 3.879s-3.879-1.737-3.879-3.879 1.737-3.878 3.879-3.878 3.879 1.736 3.879 3.878z" fill="#f67f70" fill-rule="evenodd"/><path d="m422.908 113.353v-4.865h-13.834v-21.8173h-5.235v26.6823z" fill="#f67f70"/><path d="m441.367 113.353h4.375v-21.5179h-5.235v10.9649c0 3.929-1.757 6.587-5.16 6.587-3.589 0-4.786-2.321-4.786-5.876v-11.6759h-5.197v13.0229c0 5.539 2.692 8.982 8.114 8.982 3.739 0 6.244-1.834 7.403-4.715z" fill="#f67f70"/><path d="m455.386 102.463c0-4.1911 1.795-6.7733 5.684-6.7733 3.739 0 4.972 2.3202 4.972 5.9873v11.676h5.235v-12.948c0-5.5761-2.991-9.1312-8.488-9.1312-3.888 0-6.505 1.9459-7.739 4.9398l-.486-4.3785h-4.412v21.5179h5.234z" fill="#f67f70"/><path d="m477.73 89.3278c2.281 0 3.44-.973 3.44-3.3681 0-2.4699-1.196-3.3307-3.44-3.3307-2.206 0-3.402.8608-3.402 3.3307 0 2.5073.935 3.3681 3.402 3.3681zm2.58 24.0252v-21.5179h-5.272v21.5179z" fill="#f67f70"/><path d="m495.061 95.3529c3.664 0 5.608 1.8711 6.02 5.1641h-12.563c.56-3.293 2.841-5.1641 6.543-5.1641zm10.88 11.6381h-5.608c-.823 1.759-2.468 2.732-5.309 2.732-3.926 0-6.095-1.833-6.544-5.201h17.761v-2.283c0-5.8383-3.553-10.9652-11.255-10.9652-7.254 0-11.628 4.603-11.628 11.3762v.412c0 6.624 3.589 10.89 11.404 10.89 5.907 0 9.684-2.432 11.179-6.961z" fill="#f67f70"/><g fill="#f67f70" opacity=".5"><path d="m514.133 113.84c2.319 0 3.478-1.011 3.478-3.443 0-2.507-1.197-3.368-3.478-3.368-2.28 0-3.477.861-3.477 3.368 0 2.582.972 3.443 3.477 3.443z"/><path d="m524.542 89.3278c2.281 0 3.44-.973 3.44-3.3681 0-2.4699-1.196-3.3307-3.44-3.3307-2.206 0-3.402.8608-3.402 3.3307 0 2.5073.934 3.3681 3.402 3.3681zm2.58 24.0252v-21.5179h-5.272v21.5179z"/><path d="m541.648 113.952c7.217 0 11.591-4.042 11.591-10.965v-.449c0-7.1851-4.711-11.2642-11.553-11.2642-6.693 0-11.516 4.0416-11.516 11.2642v.449c0 6.998 3.926 10.965 11.478 10.965zm.038-4.491c-3.964 0-6.207-2.357-6.207-6.549v-.374c0-4.4907 2.43-6.8858 6.282-6.8858 3.888 0 6.206 2.5074 6.206 6.8858v.374c0 4.192-2.206 6.549-6.281 6.549z"/></g><g fill="#fabfb7"><circle cx="765.739" cy="190.766" r="2.87012" transform="matrix(-1 0 0 -1 1531.478 381.532)"/><circle cx="752.116" cy="190.766" r="2.87012" transform="matrix(-1 0 0 -1 1504.232 381.532)"/><circle cx="752.116" cy="177.143" r="2.87012" transform="matrix(-1 0 0 -1 1504.232 354.286)"/><circle cx="765.739" cy="177.143" r="2.87012" transform="matrix(-1 0 0 -1 1531.478 354.286)"/><circle cx="738.493" cy="190.766" r="2.87012" transform="matrix(-1 0 0 -1 1476.986 381.532)"/><circle cx="724.87" cy="190.766" r="2.87012" transform="matrix(-1 0 0 -1 1449.74 381.532)"/><circle cx="792.985" cy="190.766" r="2.87012" transform="matrix(-1 0 0 -1 1585.97 381.532)"/><circle cx="806.608" cy="177.143" r="2.87012" transform="matrix(-1 0 0 -1 1613.216 354.286)"/><circle cx="819.87" cy="177.143" r="2.87012" transform="matrix(-1 0 0 -1 1639.74 354.286)"/><circle cx="832.87" cy="177.143" r="2.87012" transform="matrix(-1 0 0 -1 1665.74 354.286)"/><circle cx="779.362" cy="190.766" r="2.87012" transform="matrix(-1 0 0 -1 1558.724 381.532)"/><circle cx="779.362" cy="177.143" r="2.87012" transform="matrix(-1 0 0 -1 1558.724 354.286)"/><circle cx="792.985" cy="177.143" r="2.87012" transform="matrix(-1 0 0 -1 1585.97 354.286)"/><circle cx="765.739" cy="163.52" r="2.87012" transform="matrix(-1 0 0 -1 1531.478 327.04)"/><circle cx="792.985" cy="163.52" r="2.87012" transform="matrix(-1 0 0 -1 1585.97 327.04)"/><circle cx="806.87" cy="163.52" r="2.87012" transform="matrix(-1 0 0 -1 1613.74 327.04)"/><circle cx="752.035" cy="163.722" r="2.87012" transform="matrix(-1 0 0 -1 1504.07 327.444)"/><circle cx="765.981" cy="149.87" r="2.87012" transform="matrix(-1 0 0 -1 1531.962 299.74)"/><circle cx="724.87" cy="177.143" r="2.87012" transform="matrix(-1 0 0 -1 1449.74 354.286)"/><circle cx="710.87" cy="177.143" r="2.87012" transform="matrix(-1 0 0 -1 1421.74 354.286)"/><circle cx="738.493" cy="177.143" r="2.87012" transform="matrix(-1 0 0 -1 1476.986 354.286)"/><circle cx="120.739" cy="34.7659" r="2.87012" transform="matrix(-1 0 0 -1 241.478 69.5318)"/><circle cx="107.116" cy="34.7659" r="2.87012" transform="matrix(-1 0 0 -1 214.232 69.5318)"/><circle cx="107.116" cy="21.1429" r="2.87012" transform="matrix(-1 0 0 -1 214.232 42.2858)"/><circle cx="107.116" cy="7.87012" r="2.87012" transform="matrix(-1 0 0 -1 214.232 15.74024)"/><circle cx="120.739" cy="21.1429" r="2.87012" transform="matrix(-1 0 0 -1 241.478 42.2858)"/><circle cx="106.87" cy="47.8701" r="2.87012" transform="matrix(-1 0 0 -1 213.74 95.7402)"/><circle cx="65.8701" cy="20.8701" r="2.87012" transform="matrix(-1 0 0 -1 131.7402 41.7402)"/><circle cx="147.985" cy="34.7659" r="2.87012" transform="matrix(-1 0 0 -1 295.97 69.5318)"/><circle cx="93.8701" cy="47.87" r="2.87012" transform="matrix(-1 0 0 -1 187.7402 95.74)"/><circle cx="134.362" cy="34.7659" r="2.87012" transform="matrix(-1 0 0 -1 268.724 69.5318)"/><circle cx="134.362" cy="21.1429" r="2.87012" transform="matrix(-1 0 0 -1 268.724 42.2858)"/><circle cx="147.985" cy="21.1429" r="2.87012" transform="matrix(-1 0 0 -1 295.97 42.2858)"/><circle cx="120.739" cy="7.5199" r="2.87012" transform="matrix(-1 0 0 -1 241.478 15.0398)"/><circle cx="161.87" cy="20.87" r="2.87012" transform="matrix(-1 0 0 -1 323.74 41.74)"/><circle cx="147.985" cy="7.51996" r="2.87012" transform="matrix(-1 0 0 -1 295.97 15.03992)"/><circle cx="93.8702" cy="7.72211" r="2.87012" transform="matrix(-1 0 0 -1 187.7404 15.44422)"/><circle cx="106.87" cy="60.87" r="2.87012" transform="matrix(-1 0 0 -1 213.74 121.74)"/><circle cx="79.8701" cy="21.1429" r="2.87012" transform="matrix(-1 0 0 -1 159.7402 42.2858)"/><circle cx="93.4929" cy="21.1429" r="2.87012" transform="matrix(-1 0 0 -1 186.9858 42.2858)"/></g></g></svg>