<?xml version="1.0" encoding="UTF-8"?>
<svg width="890px" height="668px" viewBox="0 0 890 668" version="1.1" xmlns="http://www.w3.org/2000/svg" xmlns:xlink="http://www.w3.org/1999/xlink">
    <!-- Generator: Sketch 61 (89581) - https://sketch.com -->
    <title>validator-list-loading</title>
    <desc>Created with Sketch.</desc>
    <g id="Page-1" stroke="none" stroke-width="1" fill="none" fill-rule="evenodd">
        <g id="validator-list-loading" fill-rule="nonzero">
            <g id="portfolio-loading-copy" transform="translate(0.000000, 82.000000)">
                <rect id="Rectangle" fill="#7A88B8" opacity="0.26" transform="translate(10.000000, 5.000000) scale(-1, 1) rotate(-180.000000) translate(-10.000000, -5.000000) " x="0" y="0" width="20" height="10" rx="2"></rect>
                <rect id="Rectangle" fill="#7A88B8" opacity="0.26" transform="translate(70.000000, 5.000000) scale(-1, 1) rotate(-180.000000) translate(-70.000000, -5.000000) " x="50" y="0" width="40" height="10" rx="2"></rect>
                <rect id="Rectangle" fill="#7A88B8" opacity="0.26" transform="translate(675.000000, 5.000000) scale(-1, 1) rotate(-180.000000) translate(-675.000000, -5.000000) " x="655" y="0" width="40" height="10" rx="2"></rect>
                <rect id="Rectangle" fill="#7A88B8" opacity="0.26" transform="translate(850.000000, 5.000000) scale(-1, 1) rotate(-180.000000) translate(-850.000000, -5.000000) " x="830" y="0" width="40" height="10" rx="2"></rect>
                <rect id="Rectangle" fill="#7A88B8" opacity="0.26" transform="translate(180.000000, 5.000000) scale(-1, 1) rotate(-180.000000) translate(-180.000000, -5.000000) " x="160" y="0" width="40" height="10" rx="2"></rect>
                <rect id="Rectangle" fill="#7A88B8" opacity="0.55" transform="translate(14.000000, 55.000000) scale(-1, 1) rotate(-180.000000) translate(-14.000000, -55.000000) " x="0" y="45" width="28" height="20" rx="2"></rect>
                <rect id="Rectangle" fill="#87E7AE" opacity="0.4" transform="translate(80.000000, 55.000000) scale(-1, 1) rotate(-180.000000) translate(-80.000000, -55.000000) " x="50" y="45" width="60" height="20" rx="4"></rect>
                <rect id="Rectangle" fill="#7A88B8" opacity="0.55" transform="translate(240.000000, 45.000000) scale(-1, 1) rotate(-180.000000) translate(-240.000000, -45.000000) " x="210" y="36" width="60" height="18" rx="2"></rect>
                <rect id="Rectangle" fill="#7A88B8" opacity="0.26" transform="translate(179.000000, 55.000000) scale(-1, 1) rotate(-180.000000) translate(-179.000000, -55.000000) " x="160" y="36" width="38" height="38" rx="19"></rect>
                <rect id="Rectangle" fill="#7A88B8" opacity="0.55" transform="translate(685.000000, 55.000000) scale(-1, 1) rotate(-180.000000) translate(-685.000000, -55.000000) " x="655" y="45" width="60" height="20" rx="2"></rect>
                <rect id="Rectangle" fill="#7A88B8" opacity="0.55" transform="translate(860.000000, 55.000000) scale(-1, 1) rotate(-180.000000) translate(-860.000000, -55.000000) " x="830" y="45" width="60" height="20" rx="2"></rect>
                <rect id="Rectangle" fill="#7A88B8" opacity="0.26" transform="translate(225.000000, 69.000000) scale(-1, 1) rotate(-180.000000) translate(-225.000000, -69.000000) " x="210" y="64" width="30" height="10" rx="2"></rect>
                <rect id="Rectangle" fill="#87E7AE" opacity="0.4" transform="translate(265.000000, 69.000000) scale(-1, 1) rotate(-180.000000) translate(-265.000000, -69.000000) " x="250" y="64" width="30" height="10" rx="2"></rect>
                <rect id="Rectangle" fill="#7A88B8" opacity="0.55" transform="translate(14.000000, 119.000000) scale(-1, 1) rotate(-180.000000) translate(-14.000000, -119.000000) " x="0" y="109" width="28" height="20" rx="2"></rect>
                <rect id="Rectangle" fill="#87E7AE" opacity="0.4" transform="translate(80.000000, 119.000000) scale(-1, 1) rotate(-180.000000) translate(-80.000000, -119.000000) " x="50" y="109" width="60" height="20" rx="4"></rect>
                <rect id="Rectangle" fill="#7A88B8" opacity="0.55" transform="translate(240.000000, 109.000000) scale(-1, 1) rotate(-180.000000) translate(-240.000000, -109.000000) " x="210" y="100" width="60" height="18" rx="2"></rect>
                <rect id="Rectangle" fill="#7A88B8" opacity="0.26" transform="translate(179.000000, 119.000000) scale(-1, 1) rotate(-180.000000) translate(-179.000000, -119.000000) " x="160" y="100" width="38" height="38" rx="19"></rect>
                <rect id="Rectangle" fill="#7A88B8" opacity="0.55" transform="translate(685.000000, 119.000000) scale(-1, 1) rotate(-180.000000) translate(-685.000000, -119.000000) " x="655" y="109" width="60" height="20" rx="2"></rect>
                <rect id="Rectangle" fill="#7A88B8" opacity="0.55" transform="translate(860.000000, 119.000000) scale(-1, 1) rotate(-180.000000) translate(-860.000000, -119.000000) " x="830" y="109" width="60" height="20" rx="2"></rect>
                <rect id="Rectangle" fill="#7A88B8" opacity="0.26" transform="translate(225.000000, 133.000000) scale(-1, 1) rotate(-180.000000) translate(-225.000000, -133.000000) " x="210" y="128" width="30" height="10" rx="2"></rect>
                <rect id="Rectangle" fill="#87E7AE" opacity="0.4" transform="translate(265.000000, 133.000000) scale(-1, 1) rotate(-180.000000) translate(-265.000000, -133.000000) " x="250" y="128" width="30" height="10" rx="2"></rect>
                <rect id="Rectangle" fill="#7A88B8" opacity="0.55" transform="translate(14.000000, 183.000000) scale(-1, 1) rotate(-180.000000) translate(-14.000000, -183.000000) " x="0" y="173" width="28" height="20" rx="2"></rect>
                <rect id="Rectangle" fill="#87E7AE" opacity="0.4" transform="translate(80.000000, 183.000000) scale(-1, 1) rotate(-180.000000) translate(-80.000000, -183.000000) " x="50" y="173" width="60" height="20" rx="4"></rect>
                <rect id="Rectangle" fill="#7A88B8" opacity="0.55" transform="translate(240.000000, 173.000000) scale(-1, 1) rotate(-180.000000) translate(-240.000000, -173.000000) " x="210" y="164" width="60" height="18" rx="2"></rect>
                <rect id="Rectangle" fill="#7A88B8" opacity="0.26" transform="translate(179.000000, 183.000000) scale(-1, 1) rotate(-180.000000) translate(-179.000000, -183.000000) " x="160" y="164" width="38" height="38" rx="19"></rect>
                <rect id="Rectangle" fill="#7A88B8" opacity="0.55" transform="translate(685.000000, 183.000000) scale(-1, 1) rotate(-180.000000) translate(-685.000000, -183.000000) " x="655" y="173" width="60" height="20" rx="2"></rect>
                <rect id="Rectangle" fill="#7A88B8" opacity="0.55" transform="translate(860.000000, 183.000000) scale(-1, 1) rotate(-180.000000) translate(-860.000000, -183.000000) " x="830" y="173" width="60" height="20" rx="2"></rect>
                <rect id="Rectangle" fill="#7A88B8" opacity="0.26" transform="translate(225.000000, 197.000000) scale(-1, 1) rotate(-180.000000) translate(-225.000000, -197.000000) " x="210" y="192" width="30" height="10" rx="2"></rect>
                <rect id="Rectangle" fill="#87E7AE" opacity="0.4" transform="translate(265.000000, 197.000000) scale(-1, 1) rotate(-180.000000) translate(-265.000000, -197.000000) " x="250" y="192" width="30" height="10" rx="2"></rect>
            </g>
            <g id="portfolio-loading-copy-2" transform="translate(0.000000, 310.000000)">
                <rect id="Rectangle" fill="#7A88B8" opacity="0.55" transform="translate(14.000000, 19.000000) scale(-1, 1) rotate(-180.000000) translate(-14.000000, -19.000000) " x="0" y="9" width="28" height="20" rx="2"></rect>
                <rect id="Rectangle" fill="#87E7AE" opacity="0.4" transform="translate(80.000000, 19.000000) scale(-1, 1) rotate(-180.000000) translate(-80.000000, -19.000000) " x="50" y="9" width="60" height="20" rx="4"></rect>
                <rect id="Rectangle" fill="#7A88B8" opacity="0.55" transform="translate(240.000000, 9.000000) scale(-1, 1) rotate(-180.000000) translate(-240.000000, -9.000000) " x="210" y="0" width="60" height="18" rx="2"></rect>
                <rect id="Rectangle" fill="#7A88B8" opacity="0.26" transform="translate(179.000000, 19.000000) scale(-1, 1) rotate(-180.000000) translate(-179.000000, -19.000000) " x="160" y="0" width="38" height="38" rx="19"></rect>
                <rect id="Rectangle" fill="#7A88B8" opacity="0.55" transform="translate(685.000000, 19.000000) scale(-1, 1) rotate(-180.000000) translate(-685.000000, -19.000000) " x="655" y="9" width="60" height="20" rx="2"></rect>
                <rect id="Rectangle" fill="#7A88B8" opacity="0.55" transform="translate(860.000000, 19.000000) scale(-1, 1) rotate(-180.000000) translate(-860.000000, -19.000000) " x="830" y="9" width="60" height="20" rx="2"></rect>
                <rect id="Rectangle" fill="#7A88B8" opacity="0.26" transform="translate(225.000000, 33.000000) scale(-1, 1) rotate(-180.000000) translate(-225.000000, -33.000000) " x="210" y="28" width="30" height="10" rx="2"></rect>
                <rect id="Rectangle" fill="#87E7AE" opacity="0.4" transform="translate(265.000000, 33.000000) scale(-1, 1) rotate(-180.000000) translate(-265.000000, -33.000000) " x="250" y="28" width="30" height="10" rx="2"></rect>
                <rect id="Rectangle" fill="#7A88B8" opacity="0.55" transform="translate(14.000000, 83.000000) scale(-1, 1) rotate(-180.000000) translate(-14.000000, -83.000000) " x="0" y="73" width="28" height="20" rx="2"></rect>
                <rect id="Rectangle" fill="#87E7AE" opacity="0.4" transform="translate(80.000000, 83.000000) scale(-1, 1) rotate(-180.000000) translate(-80.000000, -83.000000) " x="50" y="73" width="60" height="20" rx="4"></rect>
                <rect id="Rectangle" fill="#7A88B8" opacity="0.55" transform="translate(240.000000, 73.000000) scale(-1, 1) rotate(-180.000000) translate(-240.000000, -73.000000) " x="210" y="64" width="60" height="18" rx="2"></rect>
                <rect id="Rectangle" fill="#7A88B8" opacity="0.26" transform="translate(179.000000, 83.000000) scale(-1, 1) rotate(-180.000000) translate(-179.000000, -83.000000) " x="160" y="64" width="38" height="38" rx="19"></rect>
                <rect id="Rectangle" fill="#7A88B8" opacity="0.55" transform="translate(685.000000, 83.000000) scale(-1, 1) rotate(-180.000000) translate(-685.000000, -83.000000) " x="655" y="73" width="60" height="20" rx="2"></rect>
                <rect id="Rectangle" fill="#7A88B8" opacity="0.55" transform="translate(860.000000, 83.000000) scale(-1, 1) rotate(-180.000000) translate(-860.000000, -83.000000) " x="830" y="73" width="60" height="20" rx="2"></rect>
                <rect id="Rectangle" fill="#7A88B8" opacity="0.26" transform="translate(225.000000, 97.000000) scale(-1, 1) rotate(-180.000000) translate(-225.000000, -97.000000) " x="210" y="92" width="30" height="10" rx="2"></rect>
                <rect id="Rectangle" fill="#87E7AE" opacity="0.4" transform="translate(265.000000, 97.000000) scale(-1, 1) rotate(-180.000000) translate(-265.000000, -97.000000) " x="250" y="92" width="30" height="10" rx="2"></rect>
                <rect id="Rectangle" fill="#7A88B8" opacity="0.55" transform="translate(14.000000, 147.000000) scale(-1, 1) rotate(-180.000000) translate(-14.000000, -147.000000) " x="0" y="137" width="28" height="20" rx="2"></rect>
                <rect id="Rectangle" fill="#87E7AE" opacity="0.4" transform="translate(80.000000, 147.000000) scale(-1, 1) rotate(-180.000000) translate(-80.000000, -147.000000) " x="50" y="137" width="60" height="20" rx="4"></rect>
                <rect id="Rectangle" fill="#7A88B8" opacity="0.55" transform="translate(240.000000, 137.000000) scale(-1, 1) rotate(-180.000000) translate(-240.000000, -137.000000) " x="210" y="128" width="60" height="18" rx="2"></rect>
                <rect id="Rectangle" fill="#7A88B8" opacity="0.26" transform="translate(179.000000, 147.000000) scale(-1, 1) rotate(-180.000000) translate(-179.000000, -147.000000) " x="160" y="128" width="38" height="38" rx="19"></rect>
                <rect id="Rectangle" fill="#7A88B8" opacity="0.55" transform="translate(685.000000, 147.000000) scale(-1, 1) rotate(-180.000000) translate(-685.000000, -147.000000) " x="655" y="137" width="60" height="20" rx="2"></rect>
                <rect id="Rectangle" fill="#7A88B8" opacity="0.55" transform="translate(860.000000, 147.000000) scale(-1, 1) rotate(-180.000000) translate(-860.000000, -147.000000) " x="830" y="137" width="60" height="20" rx="2"></rect>
                <rect id="Rectangle" fill="#7A88B8" opacity="0.26" transform="translate(225.000000, 161.000000) scale(-1, 1) rotate(-180.000000) translate(-225.000000, -161.000000) " x="210" y="156" width="30" height="10" rx="2"></rect>
                <rect id="Rectangle" fill="#87E7AE" opacity="0.4" transform="translate(265.000000, 161.000000) scale(-1, 1) rotate(-180.000000) translate(-265.000000, -161.000000) " x="250" y="156" width="30" height="10" rx="2"></rect>
            </g>
            <g id="portfolio-loading-copy-3" transform="translate(0.000000, 502.000000)">
                <rect id="Rectangle" fill="#7A88B8" opacity="0.55" transform="translate(14.000000, 19.000000) scale(-1, 1) rotate(-180.000000) translate(-14.000000, -19.000000) " x="0" y="9" width="28" height="20" rx="2"></rect>
                <rect id="Rectangle" fill="#87E7AE" opacity="0.4" transform="translate(80.000000, 19.000000) scale(-1, 1) rotate(-180.000000) translate(-80.000000, -19.000000) " x="50" y="9" width="60" height="20" rx="4"></rect>
                <rect id="Rectangle" fill="#7A88B8" opacity="0.55" transform="translate(240.000000, 9.000000) scale(-1, 1) rotate(-180.000000) translate(-240.000000, -9.000000) " x="210" y="0" width="60" height="18" rx="2"></rect>
                <rect id="Rectangle" fill="#7A88B8" opacity="0.26" transform="translate(179.000000, 19.000000) scale(-1, 1) rotate(-180.000000) translate(-179.000000, -19.000000) " x="160" y="0" width="38" height="38" rx="19"></rect>
                <rect id="Rectangle" fill="#7A88B8" opacity="0.55" transform="translate(685.000000, 19.000000) scale(-1, 1) rotate(-180.000000) translate(-685.000000, -19.000000) " x="655" y="9" width="60" height="20" rx="2"></rect>
                <rect id="Rectangle" fill="#7A88B8" opacity="0.55" transform="translate(860.000000, 19.000000) scale(-1, 1) rotate(-180.000000) translate(-860.000000, -19.000000) " x="830" y="9" width="60" height="20" rx="2"></rect>
                <rect id="Rectangle" fill="#7A88B8" opacity="0.26" transform="translate(225.000000, 33.000000) scale(-1, 1) rotate(-180.000000) translate(-225.000000, -33.000000) " x="210" y="28" width="30" height="10" rx="2"></rect>
                <rect id="Rectangle" fill="#87E7AE" opacity="0.4" transform="translate(265.000000, 33.000000) scale(-1, 1) rotate(-180.000000) translate(-265.000000, -33.000000) " x="250" y="28" width="30" height="10" rx="2"></rect>
                <rect id="Rectangle" fill="#7A88B8" opacity="0.55" transform="translate(14.000000, 83.000000) scale(-1, 1) rotate(-180.000000) translate(-14.000000, -83.000000) " x="0" y="73" width="28" height="20" rx="2"></rect>
                <rect id="Rectangle" fill="#87E7AE" opacity="0.4" transform="translate(80.000000, 83.000000) scale(-1, 1) rotate(-180.000000) translate(-80.000000, -83.000000) " x="50" y="73" width="60" height="20" rx="4"></rect>
                <rect id="Rectangle" fill="#7A88B8" opacity="0.55" transform="translate(240.000000, 73.000000) scale(-1, 1) rotate(-180.000000) translate(-240.000000, -73.000000) " x="210" y="64" width="60" height="18" rx="2"></rect>
                <rect id="Rectangle" fill="#7A88B8" opacity="0.26" transform="translate(179.000000, 83.000000) scale(-1, 1) rotate(-180.000000) translate(-179.000000, -83.000000) " x="160" y="64" width="38" height="38" rx="19"></rect>
                <rect id="Rectangle" fill="#7A88B8" opacity="0.55" transform="translate(685.000000, 83.000000) scale(-1, 1) rotate(-180.000000) translate(-685.000000, -83.000000) " x="655" y="73" width="60" height="20" rx="2"></rect>
                <rect id="Rectangle" fill="#7A88B8" opacity="0.55" transform="translate(860.000000, 83.000000) scale(-1, 1) rotate(-180.000000) translate(-860.000000, -83.000000) " x="830" y="73" width="60" height="20" rx="2"></rect>
                <rect id="Rectangle" fill="#7A88B8" opacity="0.26" transform="translate(225.000000, 97.000000) scale(-1, 1) rotate(-180.000000) translate(-225.000000, -97.000000) " x="210" y="92" width="30" height="10" rx="2"></rect>
                <rect id="Rectangle" fill="#87E7AE" opacity="0.4" transform="translate(265.000000, 97.000000) scale(-1, 1) rotate(-180.000000) translate(-265.000000, -97.000000) " x="250" y="92" width="30" height="10" rx="2"></rect>
                <rect id="Rectangle" fill="#7A88B8" opacity="0.55" transform="translate(14.000000, 147.000000) scale(-1, 1) rotate(-180.000000) translate(-14.000000, -147.000000) " x="0" y="137" width="28" height="20" rx="2"></rect>
                <rect id="Rectangle" fill="#87E7AE" opacity="0.4" transform="translate(80.000000, 147.000000) scale(-1, 1) rotate(-180.000000) translate(-80.000000, -147.000000) " x="50" y="137" width="60" height="20" rx="4"></rect>
                <rect id="Rectangle" fill="#7A88B8" opacity="0.55" transform="translate(240.000000, 137.000000) scale(-1, 1) rotate(-180.000000) translate(-240.000000, -137.000000) " x="210" y="128" width="60" height="18" rx="2"></rect>
                <rect id="Rectangle" fill="#7A88B8" opacity="0.26" transform="translate(179.000000, 147.000000) scale(-1, 1) rotate(-180.000000) translate(-179.000000, -147.000000) " x="160" y="128" width="38" height="38" rx="19"></rect>
                <rect id="Rectangle" fill="#7A88B8" opacity="0.55" transform="translate(685.000000, 147.000000) scale(-1, 1) rotate(-180.000000) translate(-685.000000, -147.000000) " x="655" y="137" width="60" height="20" rx="2"></rect>
                <rect id="Rectangle" fill="#7A88B8" opacity="0.55" transform="translate(860.000000, 147.000000) scale(-1, 1) rotate(-180.000000) translate(-860.000000, -147.000000) " x="830" y="137" width="60" height="20" rx="2"></rect>
                <rect id="Rectangle" fill="#7A88B8" opacity="0.26" transform="translate(225.000000, 161.000000) scale(-1, 1) rotate(-180.000000) translate(-225.000000, -161.000000) " x="210" y="156" width="30" height="10" rx="2"></rect>
                <rect id="Rectangle" fill="#87E7AE" opacity="0.4" transform="translate(265.000000, 161.000000) scale(-1, 1) rotate(-180.000000) translate(-265.000000, -161.000000) " x="250" y="156" width="30" height="10" rx="2"></rect>
            </g>
            <rect id="Rectangle-Copy" fill="#7A88B8" opacity="0.26" x="0" y="1" width="300" height="36" rx="4"></rect>
            <rect id="Rectangle" fill-opacity="0.72" fill="#6789FF" opacity="0.55" x="710" y="0" width="180" height="36" rx="8"></rect>
            <rect id="Rectangle" fill="#6789FF" opacity="0.55" x="800" y="0" width="90" height="36" rx="8"></rect>
        </g>
    </g>
</svg>