<?xml version="1.0" encoding="UTF-8"?>
<svg width="890px" height="325px" viewBox="0 0 890 325" version="1.1" xmlns="http://www.w3.org/2000/svg" xmlns:xlink="http://www.w3.org/1999/xlink">
    <!-- Generator: Sketch 61 (89581) - https://sketch.com -->
    <title>portfolio-loading</title>
    <desc>Created with Sketch.</desc>
    <g id="Page-1" stroke="none" stroke-width="1" fill="none" fill-rule="evenodd">
        <g id="portfolio-loading" fill-rule="nonzero">
            <g id="headings" fill="#7A88B8" opacity="0.26">
                <rect id="Rectangle" transform="translate(10.000000, 5.000000) scale(-1, 1) rotate(-180.000000) translate(-10.000000, -5.000000) " x="0" y="0" width="20" height="10" rx="2"></rect>
                <rect id="Rectangle" transform="translate(70.000000, 5.000000) scale(-1, 1) rotate(-180.000000) translate(-70.000000, -5.000000) " x="50" y="0" width="40" height="10" rx="2"></rect>
                <rect id="Rectangle" transform="translate(675.000000, 5.000000) scale(-1, 1) rotate(-180.000000) translate(-675.000000, -5.000000) " x="655" y="0" width="40" height="10" rx="2"></rect>
                <rect id="Rectangle" transform="translate(850.000000, 5.000000) scale(-1, 1) rotate(-180.000000) translate(-850.000000, -5.000000) " x="830" y="0" width="40" height="10" rx="2"></rect>
                <rect id="Rectangle" transform="translate(180.000000, 5.000000) scale(-1, 1) rotate(-180.000000) translate(-180.000000, -5.000000) " x="160" y="0" width="40" height="10" rx="2"></rect>
            </g>
            <g id="li-validator" transform="translate(0.000000, 35.000000)">
                <rect id="Rectangle-Copy-9" fill="#7A88B8" opacity="0.55" transform="translate(14.000000, 19.000000) scale(-1, 1) rotate(-180.000000) translate(-14.000000, -19.000000) " x="0" y="9" width="28" height="20" rx="2"></rect>
                <rect id="Rectangle-Copy-10" fill="#87E7AE" opacity="0.4" transform="translate(80.000000, 19.000000) scale(-1, 1) rotate(-180.000000) translate(-80.000000, -19.000000) " x="50" y="9" width="60" height="20" rx="4"></rect>
                <rect id="Rectangle-Copy-11" fill="#7A88B8" opacity="0.55" transform="translate(240.000000, 9.000000) scale(-1, 1) rotate(-180.000000) translate(-240.000000, -9.000000) " x="210" y="0" width="60" height="18" rx="2"></rect>
                <rect id="Rectangle-Copy-12" fill="#7A88B8" opacity="0.26" transform="translate(179.000000, 19.000000) scale(-1, 1) rotate(-180.000000) translate(-179.000000, -19.000000) " x="160" y="0" width="38" height="38" rx="19"></rect>
                <rect id="Rectangle-Copy-13" fill="#7A88B8" opacity="0.55" transform="translate(685.000000, 19.000000) scale(-1, 1) rotate(-180.000000) translate(-685.000000, -19.000000) " x="655" y="9" width="60" height="20" rx="2"></rect>
                <rect id="Rectangle-Copy-14" fill="#7A88B8" opacity="0.55" transform="translate(860.000000, 19.000000) scale(-1, 1) rotate(-180.000000) translate(-860.000000, -19.000000) " x="830" y="9" width="60" height="20" rx="2"></rect>
                <rect id="Rectangle-Copy-15" fill="#7A88B8" opacity="0.26" transform="translate(225.000000, 33.000000) scale(-1, 1) rotate(-180.000000) translate(-225.000000, -33.000000) " x="210" y="28" width="30" height="10" rx="2"></rect>
                <rect id="Rectangle-Copy-16" fill="#87E7AE" opacity="0.4" transform="translate(265.000000, 33.000000) scale(-1, 1) rotate(-180.000000) translate(-265.000000, -33.000000) " x="250" y="28" width="30" height="10" rx="2"></rect>
            </g>
            <g id="li-validator" transform="translate(0.000000, 98.000000)">
                <rect id="Rectangle-Copy-9" fill="#7A88B8" opacity="0.55" transform="translate(14.000000, 19.000000) scale(-1, 1) rotate(-180.000000) translate(-14.000000, -19.000000) " x="0" y="9" width="28" height="20" rx="2"></rect>
                <rect id="Rectangle-Copy-10" fill="#87E7AE" opacity="0.4" transform="translate(80.000000, 19.000000) scale(-1, 1) rotate(-180.000000) translate(-80.000000, -19.000000) " x="50" y="9" width="60" height="20" rx="4"></rect>
                <rect id="Rectangle-Copy-11" fill="#7A88B8" opacity="0.55" transform="translate(240.000000, 9.000000) scale(-1, 1) rotate(-180.000000) translate(-240.000000, -9.000000) " x="210" y="0" width="60" height="18" rx="2"></rect>
                <rect id="Rectangle-Copy-12" fill="#7A88B8" opacity="0.26" transform="translate(179.000000, 19.000000) scale(-1, 1) rotate(-180.000000) translate(-179.000000, -19.000000) " x="160" y="0" width="38" height="38" rx="19"></rect>
                <rect id="Rectangle-Copy-13" fill="#7A88B8" opacity="0.55" transform="translate(685.000000, 19.000000) scale(-1, 1) rotate(-180.000000) translate(-685.000000, -19.000000) " x="655" y="9" width="60" height="20" rx="2"></rect>
                <rect id="Rectangle-Copy-14" fill="#7A88B8" opacity="0.55" transform="translate(860.000000, 19.000000) scale(-1, 1) rotate(-180.000000) translate(-860.000000, -19.000000) " x="830" y="9" width="60" height="20" rx="2"></rect>
                <rect id="Rectangle-Copy-15" fill="#7A88B8" opacity="0.26" transform="translate(225.000000, 33.000000) scale(-1, 1) rotate(-180.000000) translate(-225.000000, -33.000000) " x="210" y="28" width="30" height="10" rx="2"></rect>
                <rect id="Rectangle-Copy-16" fill="#87E7AE" opacity="0.4" transform="translate(265.000000, 33.000000) scale(-1, 1) rotate(-180.000000) translate(-265.000000, -33.000000) " x="250" y="28" width="30" height="10" rx="2"></rect>
            </g>
            <g id="li-validator-copy" transform="translate(0.000000, 161.000000)">
                <rect id="Rectangle-Copy-9" fill="#7A88B8" opacity="0.55" transform="translate(14.000000, 19.000000) scale(-1, 1) rotate(-180.000000) translate(-14.000000, -19.000000) " x="0" y="9" width="28" height="20" rx="2"></rect>
                <rect id="Rectangle-Copy-10" fill="#87E7AE" opacity="0.4" transform="translate(80.000000, 19.000000) scale(-1, 1) rotate(-180.000000) translate(-80.000000, -19.000000) " x="50" y="9" width="60" height="20" rx="4"></rect>
                <rect id="Rectangle-Copy-11" fill="#7A88B8" opacity="0.55" transform="translate(240.000000, 9.000000) scale(-1, 1) rotate(-180.000000) translate(-240.000000, -9.000000) " x="210" y="0" width="60" height="18" rx="2"></rect>
                <rect id="Rectangle-Copy-12" fill="#7A88B8" opacity="0.26" transform="translate(179.000000, 19.000000) scale(-1, 1) rotate(-180.000000) translate(-179.000000, -19.000000) " x="160" y="0" width="38" height="38" rx="19"></rect>
                <rect id="Rectangle-Copy-13" fill="#7A88B8" opacity="0.55" transform="translate(685.000000, 19.000000) scale(-1, 1) rotate(-180.000000) translate(-685.000000, -19.000000) " x="655" y="9" width="60" height="20" rx="2"></rect>
                <rect id="Rectangle-Copy-14" fill="#7A88B8" opacity="0.55" transform="translate(860.000000, 19.000000) scale(-1, 1) rotate(-180.000000) translate(-860.000000, -19.000000) " x="830" y="9" width="60" height="20" rx="2"></rect>
                <rect id="Rectangle-Copy-15" fill="#7A88B8" opacity="0.26" transform="translate(225.000000, 33.000000) scale(-1, 1) rotate(-180.000000) translate(-225.000000, -33.000000) " x="210" y="28" width="30" height="10" rx="2"></rect>
                <rect id="Rectangle-Copy-16" fill="#87E7AE" opacity="0.4" transform="translate(265.000000, 33.000000) scale(-1, 1) rotate(-180.000000) translate(-265.000000, -33.000000) " x="250" y="28" width="30" height="10" rx="2"></rect>
            </g>
            <g id="li-validator-copy-2" transform="translate(0.000000, 224.000000)">
                <rect id="Rectangle-Copy-9" fill="#7A88B8" opacity="0.55" transform="translate(14.000000, 19.000000) scale(-1, 1) rotate(-180.000000) translate(-14.000000, -19.000000) " x="0" y="9" width="28" height="20" rx="2"></rect>
                <rect id="Rectangle-Copy-10" fill="#87E7AE" opacity="0.4" transform="translate(80.000000, 19.000000) scale(-1, 1) rotate(-180.000000) translate(-80.000000, -19.000000) " x="50" y="9" width="60" height="20" rx="4"></rect>
                <rect id="Rectangle-Copy-11" fill="#7A88B8" opacity="0.55" transform="translate(240.000000, 9.000000) scale(-1, 1) rotate(-180.000000) translate(-240.000000, -9.000000) " x="210" y="0" width="60" height="18" rx="2"></rect>
                <rect id="Rectangle-Copy-12" fill="#7A88B8" opacity="0.26" transform="translate(179.000000, 19.000000) scale(-1, 1) rotate(-180.000000) translate(-179.000000, -19.000000) " x="160" y="0" width="38" height="38" rx="19"></rect>
                <rect id="Rectangle-Copy-13" fill="#7A88B8" opacity="0.55" transform="translate(685.000000, 19.000000) scale(-1, 1) rotate(-180.000000) translate(-685.000000, -19.000000) " x="655" y="9" width="60" height="20" rx="2"></rect>
                <rect id="Rectangle-Copy-14" fill="#7A88B8" opacity="0.55" transform="translate(860.000000, 19.000000) scale(-1, 1) rotate(-180.000000) translate(-860.000000, -19.000000) " x="830" y="9" width="60" height="20" rx="2"></rect>
                <rect id="Rectangle-Copy-15" fill="#7A88B8" opacity="0.26" transform="translate(225.000000, 33.000000) scale(-1, 1) rotate(-180.000000) translate(-225.000000, -33.000000) " x="210" y="28" width="30" height="10" rx="2"></rect>
                <rect id="Rectangle-Copy-16" fill="#87E7AE" opacity="0.4" transform="translate(265.000000, 33.000000) scale(-1, 1) rotate(-180.000000) translate(-265.000000, -33.000000) " x="250" y="28" width="30" height="10" rx="2"></rect>
            </g>
            <g id="li-validator-copy-3" transform="translate(0.000000, 287.000000)">
                <rect id="Rectangle-Copy-9" fill="#7A88B8" opacity="0.55" transform="translate(14.000000, 19.000000) scale(-1, 1) rotate(-180.000000) translate(-14.000000, -19.000000) " x="0" y="9" width="28" height="20" rx="2"></rect>
                <rect id="Rectangle-Copy-10" fill="#87E7AE" opacity="0.4" transform="translate(80.000000, 19.000000) scale(-1, 1) rotate(-180.000000) translate(-80.000000, -19.000000) " x="50" y="9" width="60" height="20" rx="4"></rect>
                <rect id="Rectangle-Copy-11" fill="#7A88B8" opacity="0.55" transform="translate(240.000000, 9.000000) scale(-1, 1) rotate(-180.000000) translate(-240.000000, -9.000000) " x="210" y="0" width="60" height="18" rx="2"></rect>
                <rect id="Rectangle-Copy-12" fill="#7A88B8" opacity="0.26" transform="translate(179.000000, 19.000000) scale(-1, 1) rotate(-180.000000) translate(-179.000000, -19.000000) " x="160" y="0" width="38" height="38" rx="19"></rect>
                <rect id="Rectangle-Copy-13" fill="#7A88B8" opacity="0.55" transform="translate(685.000000, 19.000000) scale(-1, 1) rotate(-180.000000) translate(-685.000000, -19.000000) " x="655" y="9" width="60" height="20" rx="2"></rect>
                <rect id="Rectangle-Copy-14" fill="#7A88B8" opacity="0.55" transform="translate(860.000000, 19.000000) scale(-1, 1) rotate(-180.000000) translate(-860.000000, -19.000000) " x="830" y="9" width="60" height="20" rx="2"></rect>
                <rect id="Rectangle-Copy-15" fill="#7A88B8" opacity="0.26" transform="translate(225.000000, 33.000000) scale(-1, 1) rotate(-180.000000) translate(-225.000000, -33.000000) " x="210" y="28" width="30" height="10" rx="2"></rect>
                <rect id="Rectangle-Copy-16" fill="#87E7AE" opacity="0.4" transform="translate(265.000000, 33.000000) scale(-1, 1) rotate(-180.000000) translate(-265.000000, -33.000000) " x="250" y="28" width="30" height="10" rx="2"></rect>
            </g>
        </g>
    </g>
</svg>