<?xml version="1.0" encoding="UTF-8"?>
<svg width="980px" height="216px" viewBox="0 0 980 216" version="1.1" xmlns="http://www.w3.org/2000/svg" xmlns:xlink="http://www.w3.org/1999/xlink">
    <!-- Generator: Sketch 61 (89581) - https://sketch.com -->
    <title>portfolio-loading</title>
    <desc>Created with Sketch.</desc>
    <g id="Page-1" stroke="none" stroke-width="1" fill="none" fill-rule="evenodd">
        <g id="portfolio-loading" fill-rule="nonzero">
            <rect id="Rectangle" fill="#7A88B8" opacity="0.26" transform="translate(30.000000, 5.000000) scale(-1, 1) rotate(-180.000000) translate(-30.000000, -5.000000) " x="20" y="0" width="20" height="10" rx="2"></rect>
            <rect id="Rectangle" fill="#7A88B8" opacity="0.26" transform="translate(90.000000, 5.000000) scale(-1, 1) rotate(-180.000000) translate(-90.000000, -5.000000) " x="70" y="0" width="40" height="10" rx="2"></rect>
            <rect id="Rectangle" fill="#7A88B8" opacity="0.26" transform="translate(695.000000, 5.000000) scale(-1, 1) rotate(-180.000000) translate(-695.000000, -5.000000) " x="675" y="0" width="40" height="10" rx="2"></rect>
            <rect id="Rectangle" fill="#7A88B8" opacity="0.26" transform="translate(870.000000, 5.000000) scale(-1, 1) rotate(-180.000000) translate(-870.000000, -5.000000) " x="850" y="0" width="40" height="10" rx="2"></rect>
            <rect id="Rectangle" fill="#7A88B8" opacity="0.26" transform="translate(200.000000, 5.000000) scale(-1, 1) rotate(-180.000000) translate(-200.000000, -5.000000) " x="180" y="0" width="40" height="10" rx="2"></rect>
            <rect id="Rectangle" fill="#1E223C" opacity="0.75" x="0" y="22" width="980" height="2"></rect>
            <rect id="Rectangle" fill="#7A88B8" opacity="0.55" transform="translate(34.000000, 55.000000) scale(-1, 1) rotate(-180.000000) translate(-34.000000, -55.000000) " x="20" y="45" width="28" height="20" rx="2"></rect>
            <rect id="Rectangle" fill="#87E7AE" opacity="0.4" transform="translate(100.000000, 55.000000) scale(-1, 1) rotate(-180.000000) translate(-100.000000, -55.000000) " x="70" y="45" width="60" height="20" rx="4"></rect>
            <rect id="Rectangle" fill="#7A88B8" opacity="0.55" transform="translate(260.000000, 45.000000) scale(-1, 1) rotate(-180.000000) translate(-260.000000, -45.000000) " x="230" y="36" width="60" height="18" rx="2"></rect>
            <rect id="Rectangle" fill="#7A88B8" opacity="0.26" transform="translate(199.000000, 55.000000) scale(-1, 1) rotate(-180.000000) translate(-199.000000, -55.000000) " x="180" y="36" width="38" height="38" rx="19"></rect>
            <rect id="Rectangle" fill="#7A88B8" opacity="0.55" transform="translate(705.000000, 55.000000) scale(-1, 1) rotate(-180.000000) translate(-705.000000, -55.000000) " x="675" y="45" width="60" height="20" rx="2"></rect>
            <rect id="Rectangle" fill="#7A88B8" opacity="0.55" transform="translate(880.000000, 55.000000) scale(-1, 1) rotate(-180.000000) translate(-880.000000, -55.000000) " x="850" y="45" width="60" height="20" rx="2"></rect>
            <rect id="Rectangle" fill="#7A88B8" opacity="0.26" transform="translate(245.000000, 69.000000) scale(-1, 1) rotate(-180.000000) translate(-245.000000, -69.000000) " x="230" y="64" width="30" height="10" rx="2"></rect>
            <rect id="Rectangle" fill="#87E7AE" opacity="0.4" transform="translate(285.000000, 69.000000) scale(-1, 1) rotate(-180.000000) translate(-285.000000, -69.000000) " x="270" y="64" width="30" height="10" rx="2"></rect>
            <rect id="Rectangle" fill="#1E223C" opacity="0.75" x="0" y="86" width="980" height="2"></rect>
            <rect id="Rectangle" fill="#7A88B8" opacity="0.55" transform="translate(34.000000, 119.000000) scale(-1, 1) rotate(-180.000000) translate(-34.000000, -119.000000) " x="20" y="109" width="28" height="20" rx="2"></rect>
            <rect id="Rectangle" fill="#87E7AE" opacity="0.4" transform="translate(100.000000, 119.000000) scale(-1, 1) rotate(-180.000000) translate(-100.000000, -119.000000) " x="70" y="109" width="60" height="20" rx="4"></rect>
            <rect id="Rectangle" fill="#7A88B8" opacity="0.55" transform="translate(260.000000, 109.000000) scale(-1, 1) rotate(-180.000000) translate(-260.000000, -109.000000) " x="230" y="100" width="60" height="18" rx="2"></rect>
            <rect id="Rectangle" fill="#7A88B8" opacity="0.26" transform="translate(199.000000, 119.000000) scale(-1, 1) rotate(-180.000000) translate(-199.000000, -119.000000) " x="180" y="100" width="38" height="38" rx="19"></rect>
            <rect id="Rectangle" fill="#7A88B8" opacity="0.55" transform="translate(705.000000, 119.000000) scale(-1, 1) rotate(-180.000000) translate(-705.000000, -119.000000) " x="675" y="109" width="60" height="20" rx="2"></rect>
            <rect id="Rectangle" fill="#7A88B8" opacity="0.55" transform="translate(880.000000, 119.000000) scale(-1, 1) rotate(-180.000000) translate(-880.000000, -119.000000) " x="850" y="109" width="60" height="20" rx="2"></rect>
            <rect id="Rectangle" fill="#7A88B8" opacity="0.26" transform="translate(245.000000, 133.000000) scale(-1, 1) rotate(-180.000000) translate(-245.000000, -133.000000) " x="230" y="128" width="30" height="10" rx="2"></rect>
            <rect id="Rectangle" fill="#87E7AE" opacity="0.4" transform="translate(285.000000, 133.000000) scale(-1, 1) rotate(-180.000000) translate(-285.000000, -133.000000) " x="270" y="128" width="30" height="10" rx="2"></rect>
            <rect id="Rectangle" fill="#1E223C" opacity="0.75" x="0" y="150" width="980" height="2"></rect>
            <rect id="Rectangle" fill="#7A88B8" opacity="0.55" transform="translate(34.000000, 183.000000) scale(-1, 1) rotate(-180.000000) translate(-34.000000, -183.000000) " x="20" y="173" width="28" height="20" rx="2"></rect>
            <rect id="Rectangle" fill="#87E7AE" opacity="0.4" transform="translate(100.000000, 183.000000) scale(-1, 1) rotate(-180.000000) translate(-100.000000, -183.000000) " x="70" y="173" width="60" height="20" rx="4"></rect>
            <rect id="Rectangle" fill="#7A88B8" opacity="0.55" transform="translate(260.000000, 173.000000) scale(-1, 1) rotate(-180.000000) translate(-260.000000, -173.000000) " x="230" y="164" width="60" height="18" rx="2"></rect>
            <rect id="Rectangle" fill="#7A88B8" opacity="0.26" transform="translate(199.000000, 183.000000) scale(-1, 1) rotate(-180.000000) translate(-199.000000, -183.000000) " x="180" y="164" width="38" height="38" rx="19"></rect>
            <rect id="Rectangle" fill="#7A88B8" opacity="0.55" transform="translate(705.000000, 183.000000) scale(-1, 1) rotate(-180.000000) translate(-705.000000, -183.000000) " x="675" y="173" width="60" height="20" rx="2"></rect>
            <rect id="Rectangle" fill="#7A88B8" opacity="0.55" transform="translate(880.000000, 183.000000) scale(-1, 1) rotate(-180.000000) translate(-880.000000, -183.000000) " x="850" y="173" width="60" height="20" rx="2"></rect>
            <rect id="Rectangle" fill="#7A88B8" opacity="0.26" transform="translate(245.000000, 197.000000) scale(-1, 1) rotate(-180.000000) translate(-245.000000, -197.000000) " x="230" y="192" width="30" height="10" rx="2"></rect>
            <rect id="Rectangle" fill="#87E7AE" opacity="0.4" transform="translate(285.000000, 197.000000) scale(-1, 1) rotate(-180.000000) translate(-285.000000, -197.000000) " x="270" y="192" width="30" height="10" rx="2"></rect>
            <rect id="Rectangle" fill="#1E223C" opacity="0.75" x="0" y="214" width="980" height="2"></rect>
        </g>
    </g>
</svg>