<?xml version="1.0" encoding="UTF-8"?>
<svg width="1024px" height="1024px" viewBox="0 0 1024 1024" version="1.1" xmlns="http://www.w3.org/2000/svg" xmlns:xlink="http://www.w3.org/1999/xlink">
    <!-- Generator: Sketch 48.2 (47327) - http://www.bohemiancoding.com/sketch -->
    <title>brandmark/1024</title>
    <desc>Created with Sketch.</desc>
    <defs></defs>
    <g id="Symbols" stroke="none" stroke-width="1" fill="none" fill-rule="evenodd">
        <g id="brandmark/1024">
            <path d="M513.520222,74.5830707 C504.737862,74.5830707 494.243171,84.2411386 483.647317,104.396566 C472.305438,125.971084 461.8273,157.807026 452.934871,197.799024 C434.569387,280.39427 424.034662,392.408289 424.034662,512 C424.034662,631.591711 434.569387,743.60573 452.934871,826.200976 C461.8273,866.192974 472.305438,898.028916 483.647317,919.603434 C494.243171,939.758861 504.737862,949.416929 513.520222,949.416929 C522.302528,949.416929 532.797198,939.75886 543.393041,919.603436 C554.734915,898.028912 565.213059,866.192963 574.105499,826.200973 C592.471023,743.60566 603.005783,631.591628 603.005783,512 C603.005783,392.408372 592.471023,280.39434 574.105499,197.799027 C565.213059,157.807037 554.734915,125.971088 543.393041,104.396564 C532.797198,84.2411397 522.302528,74.5830707 513.520222,74.5830707 Z" id="Ellipse-1" stroke="#000000" stroke-width="20"></path>
            <path d="M892.569876,293.296356 C888.180123,285.69813 874.561087,281.443344 851.795614,282.350337 C827.427303,283.321188 794.598983,290.170459 755.495911,302.47024 C674.737826,327.872511 572.402291,374.761573 468.76783,434.557298 C365.133621,494.352644 273.333203,559.477305 210.941392,616.670448 C180.731715,644.362966 158.382638,669.349983 145.357769,689.953778 C133.19111,709.199987 130.069948,723.10856 134.457627,730.703564 C138.847331,738.30184 152.466382,742.556659 175.231936,741.649663 C199.600246,740.678812 232.428567,733.829541 271.531639,721.52976 C352.289723,696.127489 454.625259,649.238427 558.259719,589.442702 C661.894071,529.647274 753.69445,464.522719 816.086161,407.329729 C846.295848,379.637231 868.644916,354.650235 881.669778,334.046429 C893.836408,314.800247 896.957594,300.891631 892.569878,293.29636 Z M892.569878,293.29636 C892.569863,293.296335 892.569849,293.29631 892.569834,293.296284 L892.569922,293.296436 C892.569907,293.296409 892.569891,293.296383 892.569876,293.296356 Z" id="Ellipse-1-copy" stroke="#000000" stroke-width="20"></path>
            <path d="M892.569891,730.703618 C896.957585,723.108487 893.836408,709.199936 881.669781,689.953778 C868.644911,669.349983 846.295834,644.362966 816.086157,616.670448 C753.694346,559.477305 661.893929,494.352644 558.259705,434.557289 C454.625259,374.761573 352.289723,327.872511 271.531639,302.47024 C232.428567,290.170459 199.600246,283.321188 175.231936,282.350337 C152.466382,281.443341 138.847331,285.69816 134.457715,293.296284 C130.069935,300.891538 133.191101,314.800183 145.357771,334.046429 C158.382634,354.650235 180.731701,379.637231 210.941388,407.329729 C273.333099,464.522719 365.133478,529.647274 468.767845,589.442711 C572.402291,649.238427 674.737826,696.127489 755.495911,721.52976 C794.598983,733.829541 827.427303,740.678812 851.795614,741.649663 C874.561111,742.556657 888.180151,738.301861 892.56989,730.70362 Z" id="Ellipse-1-copy-2" stroke="#000000" stroke-width="20"></path>
            <path d="M227.54705,386.702557 C244.923309,386.702557 259.009612,400.795707 259.009612,418.180461 C259.009612,435.565214 244.923309,449.658364 227.54705,449.658364 C210.17079,449.658364 196.084487,435.565214 196.084487,418.180461 C196.084487,400.795707 210.17079,386.702557 227.54705,386.702557 Z" id="Dot-copy" fill="#000000"></path>
            <path d="M727.585457,278.909839 C744.970211,278.909839 759.06336,293.002923 759.06336,310.387742 C759.06336,327.772496 744.970211,341.865646 727.585457,341.865646 C710.200637,341.865646 696.107553,327.772496 696.107553,310.387742 C696.107553,293.002923 710.200637,278.909839 727.585457,278.909839 Z" id="Dot-copy-2" fill="#000000"></path>
            <path d="M450.11902,772.975055 C467.503773,772.975055 481.596923,787.061291 481.596923,804.437617 C481.596923,821.813877 467.503773,835.900179 450.11902,835.900179 C432.734266,835.900179 418.641116,821.813877 418.641116,804.437617 C418.641116,787.061291 432.734266,772.975055 450.11902,772.975055 Z" id="Dot-copy-3" fill="#000000"></path>
            <path d="M511.766938,458.473457 C541.20005,458.473457 565.060309,482.333715 565.060309,511.766938 C565.060309,541.20005 541.20005,565.060309 511.766938,565.060309 C482.333825,565.060309 458.473457,541.20005 458.473457,511.766938 C458.473457,482.333715 482.333825,458.473457 511.766938,458.473457 Z" id="Nucleus" fill="#000000"></path>
        </g>
    </g>
</svg>