<?xml version="1.0" encoding="UTF-8"?>
<svg width="52px" height="52px" viewBox="0 0 52 52" version="1.1" xmlns="http://www.w3.org/2000/svg" xmlns:xlink="http://www.w3.org/1999/xlink">
    <!-- Generator: Sketch 59.1 (86144) - https://sketch.com -->
    <title>Edit</title>
    <desc>Created with Sketch.</desc>
    <g id="icons" stroke="none" stroke-width="1" fill="none" fill-rule="evenodd">
        <g id="Edit">
            <path d="M26,52 C40.3594,52 52,40.3594 52,26 C52,11.6406 40.3594,0 26,0 C11.6406,0 0,11.6406 0,26 C0,40.3594 11.6406,52 26,52 Z" id="Path-Copy" fill="#292B47" fill-rule="nonzero"></path>
            <g id="Group-2" transform="translate(11.000000, 13.000000)">
                <polyline id="Path" stroke="#FFFFFF" stroke-width="2.4" stroke-linecap="round" stroke-linejoin="round" transform="translate(13.000000, 13.000000) scale(-1, 1) rotate(-180.000000) translate(-13.000000, -13.000000) " points="18 18 18 8 8 8"></polyline>
                <path d="M26.285,11.5083 C27.806,11.5083 29.039,10.2752 29.039,8.7542 C29.039,7.2331 27.806,6 26.285,6 C24.764,6 23.531,7.2331 23.531,8.7542 C23.531,10.2752 24.764,11.5083 26.285,11.5083 Z" id="Path" fill="#FFFFFF" fill-rule="nonzero"></path>
                <path d="M4.7542,11.5086 C6.275,11.5086 7.508,10.2755 7.508,8.7544 C7.508,7.2333 6.275,6.0002 4.7542,6.0002 C3.2331,6.0002 2,7.2333 2,8.7544 C2,10.2755 3.2331,11.5086 4.7542,11.5086 Z" id="Path" fill="#FFFFFF" fill-rule="nonzero"></path>
                <path d="M3,23.0263 C6.087,26.0819 10.538,28 15.487,28 C20.449,28 24.912,26.071 28,23" id="Path" stroke="#FFFFFF" stroke-width="2.4" stroke-linecap="round" stroke-linejoin="round"></path>
                <path d="M0,0.41052 C1.2348,1.63276 3.0152,2.4 4.9948,2.4 C6.9796,2.4 8.7648,1.6284 10,0.4" id="Path-Copy-2" stroke="#F67F70" stroke-width="2.4" stroke-linecap="round" stroke-linejoin="round" transform="translate(5.000000, 1.400000) scale(1, -1) translate(-5.000000, -1.400000) "></path>
                <path d="M21,0.41052 C22.2348,1.63276 24.0152,2.4 25.9948,2.4 C27.9796,2.4 29.7648,1.6284 31,0.4" id="Path-Copy-3" stroke="#F67F70" stroke-width="2.4" stroke-linecap="round" stroke-linejoin="round" transform="translate(26.000000, 1.400000) scale(1, -1) translate(-26.000000, -1.400000) "></path>
            </g>
        </g>
    </g>
</svg>