<svg xmlns="http://www.w3.org/2000/svg" width="64" height="64" viewBox="0 0 64 64"><defs><style>.cls-1{fill:#324175;}.cls-2{fill:#66a1ff;}.cls-3{fill:#fff;}.cls-4{fill:#f67f70;}</style></defs><title>lunie_icon_recieved</title><g id="Vrstva_2" data-name="Vrstva 2"><g id="Vrstva_1-2" data-name="Vrstva 1"><circle class="cls-1" cx="32" cy="32" r="32"/><path class="cls-2" d="M34,16H30a1,1,0,0,0,0,2h4a1,1,0,0,0,0-2Z"/><path class="cls-2" d="M21,33H17a1,1,0,0,0,0,2h4a1,1,0,0,0,0-2Z"/><path class="cls-2" d="M35,47V42a1,1,0,0,0-2,0v5a1,1,0,0,0,2,0Z"/><path class="cls-2" d="M35,30V21a1,1,0,0,0-2,0v9a1,1,0,0,0,2,0Z"/><path class="cls-2" d="M48,30h0a1,1,0,0,0-1-1H38a1,1,0,0,0,0,2h8v3a1,1,0,0,0,2,0V30Z"/><path class="cls-2" d="M30,37h0a1,1,0,0,0-1,1v9a1,1,0,0,0,2,0V39h3a1,1,0,0,0,0-2Z"/><path class="cls-2" d="M25,35H43a1,1,0,0,0,0-2H25a1,1,0,0,0,0,2Z"/><path class="cls-2" d="M30,20a1,1,0,0,0-1,1v8H17a1,1,0,0,0,0,2H30a1,1,0,0,0,.92-.61.65.65,0,0,0,0-.19,1.42,1.42,0,0,0,0-.2V21A1,1,0,0,0,30,20Z"/><path class="cls-3" d="M44,18a2,2,0,0,1,2,2v3a2,2,0,0,1-2,2H41a2,2,0,0,1-2-2V20a2,2,0,0,1,2-2h3m0-2H41a4,4,0,0,0-4,4v3a4,4,0,0,0,4,4h3a4,4,0,0,0,4-4V20a4,4,0,0,0-4-4Z"/><path class="cls-3" d="M44,39a2,2,0,0,1,2,2v3a2,2,0,0,1-2,2H41a2,2,0,0,1-2-2V41a2,2,0,0,1,2-2h3m0-2H41a4,4,0,0,0-4,4v3a4,4,0,0,0,4,4h3a4,4,0,0,0,4-4V41a4,4,0,0,0-4-4Z"/><path class="cls-3" d="M23,18a2,2,0,0,1,2,2v3a2,2,0,0,1-2,2H20a2,2,0,0,1-2-2V20a2,2,0,0,1,2-2h3m0-2H20a4,4,0,0,0-4,4v3a4,4,0,0,0,4,4h3a4,4,0,0,0,4-4V20a4,4,0,0,0-4-4Z"/><path class="cls-4" d="M22.68,37H20.32A4.33,4.33,0,0,0,16,41.32v2.36A4.33,4.33,0,0,0,20.32,48h2.36A4.33,4.33,0,0,0,27,43.68V41.32A4.33,4.33,0,0,0,22.68,37ZM21.5,44A1.5,1.5,0,1,1,23,42.5,1.5,1.5,0,0,1,21.5,44Z"/></g></g></svg>