<svg width="52" height="52" viewBox="0 0 52 52" fill="none" xmlns="http://www.w3.org/2000/svg">
<path d="M26 52C40.3594 52 52 40.3594 52 26C52 11.6406 40.3594 0 26 0C11.6406 0 0 11.6406 0 26C0 40.3594 11.6406 52 26 52Z" fill="#292B47"/>
<path d="M9 24V33C9 34.6569 10.3431 36 12 36H20C21.6569 36 23 34.6569 23 33V24" stroke="#66A1FF" stroke-width="2" stroke-linecap="round"/>
<path d="M29 24V33C29 34.6569 30.3431 36 32 36H40C41.6569 36 43 34.6569 43 33V24" stroke="white" stroke-width="2" stroke-linecap="round"/>
<path fill-rule="evenodd" clip-rule="evenodd" d="M32.0879 29.9231C32.1758 30.5385 32.2637 30.978 32.4396 31.3297C32.7033 31.8571 33.1429 32.2088 33.6703 32.5604C34.1978 32.8242 34.8132 33 35.6923 33H36.3077C37.2747 33 37.8022 32.8242 38.3297 32.5604C38.8571 32.2967 39.2088 31.8571 39.5604 31.3297C39.8242 30.8022 40 30.1868 40 29.3077V28.6923C40 27.7253 39.8242 27.1978 39.5604 26.6703C39.2967 26.1429 38.8571 25.7912 38.3297 25.4396C37.8022 25.1758 37.1868 25 36.3077 25H35.6923C34.7253 25 34.1978 25.1758 33.6703 25.4396C33.1429 25.7033 32.7912 26.1429 32.4396 26.6703C32.1758 27.1978 32 27.8132 32 28.6923V29.3077C32.0879 29.4835 32.0879 29.6593 32.0879 29.9231Z" fill="#F67F70"/>
<path d="M36 30.5C36.8284 30.5 37.5 29.8284 37.5 29C37.5 28.1716 36.8284 27.5 36 27.5C35.1716 27.5 34.5 28.1716 34.5 29C34.5 29.8284 35.1716 30.5 36 30.5Z" fill="#292B47"/>
<path d="M35 19C35 14 31 10 26 10C21 10 17 14 17 19" stroke="#66A1FF" stroke-width="2" stroke-miterlimit="10" stroke-linecap="round" stroke-linejoin="round"/>
<path d="M38 17L35 20L32 17" stroke="#66A1FF" stroke-width="2" stroke-miterlimit="10" stroke-linecap="round" stroke-linejoin="round"/>
</svg>
