<svg width="52" height="52" viewBox="0 0 52 52" fill="none" xmlns="http://www.w3.org/2000/svg">
<path d="M26 52C40.3594 52 52 40.3594 52 26C52 11.6406 40.3594 0 26 0C11.6406 0 0 11.6406 0 26C0 40.3594 11.6406 52 26 52Z" fill="#292B47"/>
<path d="M30 15L26 19L22 15" stroke="#66A1FF" stroke-width="2" stroke-miterlimit="10" stroke-linecap="round" stroke-linejoin="round"/>
<path d="M26 9V18" stroke="#66A1FF" stroke-width="2" stroke-miterlimit="10" stroke-linecap="round" stroke-linejoin="round"/>
<path d="M15 22V37C15 39.2091 16.7909 41 19 41H33C35.2091 41 37 39.2091 37 37V22" stroke="white" stroke-width="2" stroke-linecap="round"/>
<path fill-rule="evenodd" clip-rule="evenodd" d="M19 31.7059C19.1176 32.7647 19.3529 33.4706 19.7059 34.1765C20.1765 35.1176 20.8824 35.8235 21.8235 36.2941C22.7647 36.7647 23.8235 37 25.4706 37H26.5294C28.1765 37 29.2353 36.7647 30.1765 36.2941C31.1176 35.8235 31.8235 35.1176 32.2941 34.1765C32.7647 33.2353 33 32.1765 33 30.5294V29.4706C33 27.8235 32.7647 26.7647 32.2941 25.8235C31.8235 24.8824 31.1176 24.1765 30.1765 23.7059C29.2353 23.2353 28.1765 23 26.5294 23H25.4706C23.8235 23 22.7647 23.2353 21.8235 23.7059C20.8824 24.1765 20.1765 24.8824 19.7059 25.8235C19.2353 26.7647 19 27.8235 19 29.4706V30.5294C19 31 19 31.3529 19 31.7059Z" fill="#F67F70"/>
<path fill-rule="evenodd" clip-rule="evenodd" d="M20 31.4622C20.1008 32.3697 20.3025 32.9748 20.605 33.5798C21.0084 34.3866 21.6134 34.9916 22.4202 35.395C23.2269 35.7983 24.1345 36 25.5462 36H26.4538C27.8655 36 28.7731 35.7983 29.5798 35.395C30.3866 34.9916 30.9916 34.3866 31.395 33.5798C31.7983 32.7731 32 31.8655 32 30.4538V29.5462C32 28.1345 31.7983 27.2269 31.395 26.4202C30.9916 25.6134 30.3866 25.0084 29.5798 24.605C28.7731 24.2017 27.8655 24 26.4538 24H25.5462C24.1345 24 23.2269 24.2017 22.4202 24.605C21.6134 25.0084 21.0084 25.6134 20.605 26.4202C20.2017 27.2269 20 28.1345 20 29.5462V30.4538C20 30.8571 20 31.1597 20 31.4622Z" stroke="#F67F70" stroke-width="2"/>
<path d="M26 32C27.1046 32 28 31.1046 28 30C28 28.8954 27.1046 28 26 28C24.8954 28 24 28.8954 24 30C24 31.1046 24.8954 32 26 32Z" fill="#292B47"/>
</svg>
