<?xml version="1.0" encoding="UTF-8"?>
<svg width="52px" height="52px" viewBox="0 0 52 52" version="1.1" xmlns="http://www.w3.org/2000/svg" xmlns:xlink="http://www.w3.org/1999/xlink">
    <!-- Generator: Sketch 59.1 (86144) - https://sketch.com -->
    <title>Proposal</title>
    <desc>Created with Sketch.</desc>
    <g id="icons" stroke="none" stroke-width="1" fill="none" fill-rule="evenodd">
        <g id="Proposal" fill-rule="nonzero">
            <path d="M26,52 C40.3594,52 52,40.3594 52,26 C52,11.6406 40.3594,0 26,0 C11.6406,0 0,11.6406 0,26 C0,40.3594 11.6406,52 26,52 Z" id="Path" fill="#292B47"></path>
            <g id="bulb-idea" transform="translate(12.000000, 8.000000)">
                <g id="Group-3">
                    <path d="M12,30 L12,31.7183165 C12,32.9784742 13.1192676,34 14.5,34 L14.5,34 C15.8807324,34 17,32.9784742 17,31.7183165 L17,30 L12,30 Z" id="Path" fill="#66A1FF"></path>
                    <path d="M14.6036498,9.00067841 C10.464785,8.94473094 7,12.3565964 7,16.4905785 C7,18.1382371 7.53310288,19.6613552 8.43580402,20.898112 C9.8844889,23.3071928 10.5726553,24.4295912 10.7803385,25.9001558 C10.8694082,26.5306872 11.4088145,27 12.0463345,27 L16.9536655,27 C17.5911855,27 18.1305918,26.5306872 18.2196615,25.9001558 C18.4273995,24.4295912 19.1155659,23.3071928 20.564196,20.898112 C21.4669519,19.6613552 22,18.1382371 22,16.4905785 C22,12.3882379 18.698007,9.05602372 14.6036498,9.00067841 Z" id="Path" fill="#FFFFFF"></path>
                    <path d="M17.9259275,28.9999828 L14.4999723,28 L11.074017,28.9999828 C10.4808212,28.9999828 10,29.4477116 10,29.9999656 C10,30.5522712 10.4808767,31 11.074017,31 L17.925983,31 C18.5191788,31 19,30.5522712 19,29.9999656 C19,29.4477632 18.5190679,28.9999828 17.9259275,28.9999828 Z" id="Path" fill="#4D8EF5"></path>
                    <path d="M17.9259275,27 L11.074017,27 C10.4808212,27 10,27.4477365 10,28 L10,28 C10,28.5523151 10.4808767,29 11.074017,29 L17.925983,29 C18.5191788,29 19,28.5522635 19,28 L19,28 C19,27.4477365 18.5190679,27 17.9259275,27 Z" id="Path" fill="#66A1FF"></path>
                    <g id="Group" fill="#F67F70">
                        <path d="M8.34837501,7.67955443 C8.11724292,7.67955443 7.89341967,7.54909248 7.77514228,7.31905651 L6.0795711,4.02145803 C5.90730264,3.68643641 6.02400823,3.26682682 6.34025289,3.08432996 C6.65673331,2.90174984 7.05266785,3.02546806 7.22485772,3.36057293 L8.9204289,6.65817142 C9.09269736,6.99319304 8.97599177,7.41280262 8.65974711,7.59529949 C8.56072418,7.65249627 8.4537637,7.67955443 8.34837501,7.67955443 Z" id="Path"></path>
                        <path d="M15.348375,5.67955443 C15.1172429,5.67955443 14.8934197,5.54909248 14.7751423,5.31905651 L13.0795711,2.02145803 C12.9073026,1.68643641 13.0240082,1.26682682 13.3402529,1.08432996 C13.6567333,0.901749835 14.0526678,1.02546806 14.2248577,1.36057293 L15.9204289,4.65817142 C16.0926974,4.99319304 15.9759918,5.41280262 15.6597471,5.59529949 C15.5607242,5.65249627 15.4537637,5.67955443 15.348375,5.67955443 Z" id="Path-Copy-11" transform="translate(14.500000, 3.339777) rotate(27.000000) translate(-14.500000, -3.339777) "></path>
                        <path d="M22.348375,7.67955443 C22.1172429,7.67955443 21.8934197,7.54909248 21.7751423,7.31905651 L20.0795711,4.02145803 C19.9073026,3.68643641 20.0240082,3.26682682 20.3402529,3.08432996 C20.6567333,2.90174984 21.0526678,3.02546806 21.2248577,3.36057293 L22.9204289,6.65817142 C23.0926974,6.99319304 22.9759918,7.41280262 22.6597471,7.59529949 C22.5607242,7.65249627 22.4537637,7.67955443 22.348375,7.67955443 Z" id="Path-Copy-12" transform="translate(21.500000, 5.339777) rotate(61.000000) translate(-21.500000, -5.339777) "></path>
                        <path d="M26.348375,11.6795544 C26.1172429,11.6795544 25.8934197,11.5490925 25.7751423,11.3190565 L24.0795711,8.02145803 C23.9073026,7.68643641 24.0240082,7.26682682 24.3402529,7.08432996 C24.6567333,6.90174984 25.0526678,7.02546806 25.2248577,7.36057293 L26.9204289,10.6581714 C27.0926974,10.993193 26.9759918,11.4128026 26.6597471,11.5952995 C26.5607242,11.6524963 26.4537637,11.6795544 26.348375,11.6795544 Z" id="Path-Copy-13" transform="translate(25.500000, 9.339777) rotate(89.000000) translate(-25.500000, -9.339777) "></path>
                        <path d="M3.34837501,11.6795544 C3.11724292,11.6795544 2.89341967,11.5490925 2.77514228,11.3190565 L1.0795711,8.02145803 C0.907302638,7.68643641 1.02400823,7.26682682 1.34025289,7.08432996 C1.65673331,6.90174984 2.05266785,7.02546806 2.22485772,7.36057293 L3.9204289,10.6581714 C4.09269736,10.993193 3.97599177,11.4128026 3.65974711,11.5952995 C3.56072418,11.6524963 3.4537637,11.6795544 3.34837501,11.6795544 Z" id="Path-Copy-10" transform="translate(2.500000, 9.339777) rotate(-20.000000) translate(-2.500000, -9.339777) "></path>
                    </g>
                </g>
            </g>
        </g>
    </g>
</svg>