<svg width="52" height="52" viewBox="0 0 52 52" fill="none" xmlns="http://www.w3.org/2000/svg">
<path d="M26 52C40.3594 52 52 40.3594 52 26C52 11.6406 40.3594 0 26 0C11.6406 0 0 11.6406 0 26C0 40.3594 11.6406 52 26 52Z" fill="#292B47"/>
<path d="M22 30L26 26L30 30" stroke="white" stroke-width="2" stroke-miterlimit="10" stroke-linecap="round" stroke-linejoin="round"/>
<path d="M26 36V27" stroke="white" stroke-width="2" stroke-miterlimit="10" stroke-linecap="round" stroke-linejoin="round"/>
<path d="M15 22V37C15 39.2091 16.7909 41 19 41H33C35.2091 41 37 39.2091 37 37V22" stroke="#66A1FF" stroke-width="2" stroke-linecap="round"/>
<path fill-rule="evenodd" clip-rule="evenodd" d="M19 16.7059C19.1176 17.7647 19.3529 18.4706 19.7059 19.1765C20.1765 20.1176 20.8824 20.8235 21.8235 21.2941C22.7647 21.7647 23.8235 22 25.4706 22H26.5294C28.1765 22 29.2353 21.7647 30.1765 21.2941C31.1176 20.8235 31.8235 20.1176 32.2941 19.1765C32.7647 18.2353 33 17.1765 33 15.5294V14.4706C33 12.8235 32.7647 11.7647 32.2941 10.8235C31.8235 9.88235 31.1176 9.17647 30.1765 8.70588C29.2353 8.23529 28.1765 8 26.5294 8H25.4706C23.8235 8 22.7647 8.23529 21.8235 8.70588C20.8824 9.17647 20.1765 9.88235 19.7059 10.8235C19.2353 11.7647 19 12.8235 19 14.4706V15.5294C19 16 19 16.3529 19 16.7059Z" fill="#F67F70"/>
<path d="M26 17C27.1046 17 28 16.1046 28 15C28 13.8954 27.1046 13 26 13C24.8954 13 24 13.8954 24 15C24 16.1046 24.8954 17 26 17Z" fill="#292B47"/>
</svg>
