<?xml version="1.0" encoding="UTF-8"?>
<svg width="52px" height="52px" viewBox="0 0 52 52" version="1.1" xmlns="http://www.w3.org/2000/svg" xmlns:xlink="http://www.w3.org/1999/xlink">
    <!-- Generator: Sketch 59.1 (86144) - https://sketch.com -->
    <title>Unjail</title>
    <desc>Created with Sketch.</desc>
    <g id="icons" stroke="none" stroke-width="1" fill="none" fill-rule="evenodd">
        <g id="Unjail">
            <path d="M26,52 C40.3594,52 52,40.3594 52,26 C52,11.6406 40.3594,0 26,0 C11.6406,0 0,11.6406 0,26 C0,40.3594 11.6406,52 26,52 Z" id="Path" fill="#292B47" fill-rule="nonzero"></path>
            <g id="Group-5" transform="translate(14.000000, 14.000000)" stroke-linecap="round" stroke-linejoin="round" stroke-width="2">
                <g id="Group-4" transform="translate(0.000000, 1.000000)" stroke="#66A1FF">
                    <path d="M17.5,22 C18.4029948,17.586263 18.8544922,14.086263 18.8544922,11.5 C18.8544922,8.91373698 18.4029948,5.08040365 17.5,0" id="Path"></path>
                    <line x1="22.5" y1="22" x2="22.5" y2="0" id="Path-Copy-6"></line>
                    <path d="M11.5,22 C10.3723958,17.461263 9.80859375,13.961263 9.80859375,11.5 C9.80859375,9.03873698 10.3723958,5.20540365 11.5,0" id="Path-Copy-4"></path>
                    <line x1="1" y1="22" x2="1" y2="0" id="Path-Copy-5"></line>
                    <line x1="6.5" y1="22" x2="6.5" y2="0" id="Path-Copy-8"></line>
                </g>
                <line x1="0" y1="0.5" x2="24" y2="0.5" id="Path-Copy-7" stroke="#FFFFFF"></line>
                <line x1="0" y1="24" x2="24" y2="24" id="Path-Copy-9" stroke="#FFFFFF"></line>
            </g>
        </g>
    </g>
</svg>