<svg xmlns="http://www.w3.org/2000/svg" width="64" height="64" viewBox="0 0 64 64"><defs><style>.cls-1{fill:#324175;}.cls-2{fill:#fff;}.cls-3{fill:#66a1ff;}.cls-4{fill:#f67f70;}</style></defs><title>lunie_icon_unjail</title><g id="Vrstva_2" data-name="Vrstva 2"><g id="Vrstva_1-2" data-name="Vrstva 1"><circle class="cls-1" cx="32" cy="32" r="32"/><path class="cls-2" d="M47,18H17a1,1,0,0,0,0,2H47a1,1,0,0,0,0-2Z"/><path class="cls-3" d="M20,47V17a1,1,0,0,0-2,0V47a1,1,0,0,0,2,0Z"/><path class="cls-2" d="M47,30.88H17a1,1,0,0,0,0,2H47a1,1,0,0,0,0-2Z"/><path class="cls-4" d="M42.89,35H40.11A5.13,5.13,0,0,0,35,40.11v2.78A5.13,5.13,0,0,0,40.11,48h2.78A5.13,5.13,0,0,0,48,42.89V40.11A5.13,5.13,0,0,0,42.89,35ZM41.5,43.5a2,2,0,1,1,2-2A2,2,0,0,1,41.5,43.5Z"/><path class="cls-3" d="M32,16a1,1,0,0,0-1,1v1h2V17A1,1,0,0,0,32,16Z"/><path class="cls-3" d="M31,47a1,1,0,0,0,2,0V20H31Z"/></g></g></svg>