<?xml version="1.0" encoding="UTF-8"?>
<svg width="52px" height="52px" viewBox="0 0 52 52" version="1.1" xmlns="http://www.w3.org/2000/svg" xmlns:xlink="http://www.w3.org/1999/xlink">
    <!-- Generator: Sketch 59.1 (86144) - https://sketch.com -->
    <title>Undelegate</title>
    <desc>Created with Sketch.</desc>
    <g id="icons" stroke="none" stroke-width="1" fill="none" fill-rule="evenodd">
        <g id="Undelegate">
            <path d="M26,52 C40.3594,52 52,40.3594 52,26 C52,11.6406 40.3594,0 26,0 C11.6406,0 0,11.6406 0,26 C0,40.3594 11.6406,52 26,52 Z" id="Path" fill="#292B47" fill-rule="nonzero"></path>
            <polyline id="Path" stroke="#FFFFFF" stroke-width="2" stroke-linecap="round" stroke-linejoin="round" points="22 30 26 26 30 30"></polyline>
            <line x1="26" y1="36" x2="26" y2="27" id="Path" stroke="#FFFFFF" stroke-width="2" stroke-linecap="round" stroke-linejoin="round"></line>
            <path d="M15,22 L15,37 C15,39.2091 16.7909,41 19,41 L33,41 C35.2091,41 37,39.2091 37,37 L37,22" id="Path" stroke="#66A1FF" stroke-width="2" stroke-linecap="round"></path>
            <path d="M26,17 C27.1046,17 28,16.1046 28,15 C28,13.8954 27.1046,13 26,13 C24.8954,13 24,13.8954 24,15 C24,16.1046 24.8954,17 26,17 Z" id="Path" fill="#292B47" fill-rule="nonzero"></path>
            <path d="M19,14.7059 C19.1176,15.7647 19.3529,16.4706 19.7059,17.1765 C20.1765,18.1176 20.8824,18.8235 21.8235,19.2941 C22.7647,19.7647 23.8235,20 25.4706,20 L26.5294,20 C28.1765,20 29.2353,19.7647 30.1765,19.2941 C31.1176,18.8235 31.8235,18.1176 32.2941,17.1765 C32.7647,16.2353 33,15.1765 33,13.5294 L33,12.4706 C33,10.8235 32.7647,9.7647 32.2941,8.8235 C31.8235,7.8824 31.1176,7.1765 30.1765,6.7059 C29.2353,6.2353 28.1765,6 26.5294,6 L25.4706,6 C23.8235,6 22.7647,6.2353 21.8235,6.7059 C20.8824,7.1765 20.1765,7.8824 19.7059,8.8235 C19.2353,9.7647 19,10.8235 19,12.4706 L19,13.5294 C19,14 19,14.3529 19,14.7059 Z" id="Path" fill="#F67F70"></path>
            <path d="M20,14.4622 C20.1008,15.3697 20.3025,15.9748 20.605,16.5798 C21.0084,17.3866 21.6134,17.9916 22.4202,18.395 C23.2269,18.7983 24.1345,19 25.5462,19 L26.4538,19 C27.8655,19 28.7731,18.7983 29.5798,18.395 C30.3866,17.9916 30.9916,17.3866 31.395,16.5798 C31.7983,15.7731 32,14.8655 32,13.4538 L32,12.5462 C32,11.1345 31.7983,10.2269 31.395,9.4202 C30.9916,8.6134 30.3866,8.0084 29.5798,7.605 C28.7731,7.2017 27.8655,7 26.4538,7 L25.5462,7 C24.1345,7 23.2269,7.2017 22.4202,7.605 C21.6134,8.0084 21.0084,8.6134 20.605,9.4202 C20.2017,10.2269 20,11.1345 20,12.5462 L20,13.4538 C20,13.8571 20,14.1597 20,14.4622 Z" id="Path" stroke="#F67F70" stroke-width="2"></path>
            <path d="M26,15 C27.1046,15 28,14.1046 28,13 C28,11.8954 27.1046,11 26,11 C24.8954,11 24,11.8954 24,13 C24,14.1046 24.8954,15 26,15 Z" id="Path" fill="#292B47" fill-rule="nonzero"></path>
        </g>
    </g>
</svg>