<svg width="52" height="52" viewBox="0 0 52 52" fill="none" xmlns="http://www.w3.org/2000/svg">
<path d="M26 52C40.3594 52 52 40.3594 52 26C52 11.6406 40.3594 0 26 0C11.6406 0 0 11.6406 0 26C0 40.3594 11.6406 52 26 52Z" fill="#292B47"/>
<path d="M34 26V32.2857C34 33.2 33.2 34 32.2857 34H19.7143C18.8 34 18 33.2 18 32.2857V19.7143C18 18.8 18.8 18 19.7143 18H32.2857C33.2 18 34 18.8 34 19.7143" stroke="#66A1FF" stroke-width="2" stroke-miterlimit="10" stroke-linecap="round" stroke-linejoin="round"/>
<path d="M22.5 25.5L25.5 28.5L37 17" stroke="white" stroke-width="2" stroke-miterlimit="10" stroke-linecap="round" stroke-linejoin="round"/>
</svg>
